<svg width="393" height="14" viewBox="0 0 393 14" fill="none" xmlns="http://www.w3.org/2000/svg">
<path d="M4.83984 1.92871L1.54492 11H0.198242L3.99219 1.04688H4.86035L4.83984 1.92871ZM7.60156 11L4.2998 1.92871L4.2793 1.04688H5.14746L8.95508 11H7.60156ZM7.43066 7.31543V8.39551H1.83887V7.31543H7.43066ZM11.7507 0.5V11H10.4792V0.5H11.7507ZM15.435 0.5V11H14.1635V0.5H15.435ZM22.7626 4.76562V11H21.4979V3.60352H22.7284L22.7626 4.76562ZM25.0731 3.5625L25.0663 4.73828C24.9615 4.71549 24.8612 4.70182 24.7655 4.69727C24.6744 4.68815 24.5695 4.68359 24.4511 4.68359C24.1594 4.68359 23.9019 4.72917 23.6786 4.82031C23.4553 4.91146 23.2662 5.03906 23.1112 5.20312C22.9563 5.36719 22.8332 5.56315 22.7421 5.79102C22.6555 6.01432 22.5985 6.26042 22.5712 6.5293L22.2157 6.73438C22.2157 6.28776 22.259 5.86849 22.3456 5.47656C22.4367 5.08464 22.5757 4.73828 22.7626 4.4375C22.9494 4.13216 23.1864 3.89518 23.4735 3.72656C23.7652 3.55339 24.1115 3.4668 24.5126 3.4668C24.6037 3.4668 24.7085 3.47819 24.827 3.50098C24.9455 3.51921 25.0276 3.53971 25.0731 3.5625ZM27.8961 3.60352V11H26.6246V3.60352H27.8961ZM26.5289 1.6416C26.5289 1.43652 26.5904 1.26335 26.7135 1.12207C26.8411 0.980794 27.0279 0.910156 27.274 0.910156C27.5156 0.910156 27.7001 0.980794 27.8277 1.12207C27.9599 1.26335 28.026 1.43652 28.026 1.6416C28.026 1.83757 27.9599 2.00618 27.8277 2.14746C27.7001 2.28418 27.5156 2.35254 27.274 2.35254C27.0279 2.35254 26.8411 2.28418 26.7135 2.14746C26.5904 2.00618 26.5289 1.83757 26.5289 1.6416ZM34.9984 3.60352H36.1468V10.8428C36.1468 11.4945 36.0146 12.0505 35.7503 12.5107C35.486 12.971 35.1168 13.3197 34.6429 13.5566C34.1735 13.7982 33.6312 13.9189 33.0159 13.9189C32.7607 13.9189 32.4599 13.8779 32.1136 13.7959C31.7718 13.7184 31.4346 13.584 31.1019 13.3926C30.7738 13.2057 30.498 12.9528 30.2747 12.6338L30.9378 11.8818C31.2477 12.2555 31.5713 12.5153 31.9085 12.6611C32.2503 12.807 32.5876 12.8799 32.9202 12.8799C33.3213 12.8799 33.6676 12.8047 33.9593 12.6543C34.251 12.5039 34.4765 12.2806 34.6361 11.9844C34.8001 11.6927 34.8821 11.3327 34.8821 10.9043V5.23047L34.9984 3.60352ZM29.9056 7.38379V7.24023C29.9056 6.67513 29.9717 6.16243 30.1038 5.70215C30.2405 5.2373 30.4342 4.83854 30.6849 4.50586C30.9401 4.17318 31.2477 3.91797 31.6077 3.74023C31.9678 3.55794 32.3734 3.4668 32.8245 3.4668C33.2894 3.4668 33.695 3.54883 34.0413 3.71289C34.3922 3.8724 34.6885 4.1071 34.93 4.41699C35.1761 4.72233 35.3698 5.09147 35.5111 5.52441C35.6523 5.95736 35.7503 6.44727 35.805 6.99414V7.62305C35.7549 8.16536 35.6569 8.65299 35.5111 9.08594C35.3698 9.51888 35.1761 9.88802 34.93 10.1934C34.6885 10.4987 34.3922 10.7334 34.0413 10.8975C33.6904 11.057 33.2803 11.1367 32.8109 11.1367C32.3688 11.1367 31.9678 11.0433 31.6077 10.8564C31.2523 10.6696 30.9469 10.4076 30.6917 10.0703C30.4365 9.73307 30.2405 9.33659 30.1038 8.88086C29.9717 8.42057 29.9056 7.92155 29.9056 7.38379ZM31.1702 7.24023V7.38379C31.1702 7.75293 31.2067 8.09928 31.2796 8.42285C31.3571 8.74642 31.4733 9.03125 31.6282 9.27734C31.7877 9.52344 31.9905 9.71712 32.2366 9.8584C32.4827 9.99512 32.7767 10.0635 33.1185 10.0635C33.5377 10.0635 33.8841 9.97461 34.1575 9.79688C34.431 9.61914 34.6474 9.38444 34.807 9.09277C34.971 8.80111 35.0986 8.48438 35.1898 8.14258V6.49512C35.1396 6.24447 35.0622 6.00293 34.9573 5.77051C34.8571 5.53353 34.7249 5.32389 34.5609 5.1416C34.4014 4.95475 34.2031 4.80664 33.9661 4.69727C33.7292 4.58789 33.4512 4.5332 33.1321 4.5332C32.7858 4.5332 32.4873 4.60612 32.2366 4.75195C31.9905 4.89323 31.7877 5.08919 31.6282 5.33984C31.4733 5.58594 31.3571 5.87305 31.2796 6.20117C31.2067 6.52474 31.1702 6.87109 31.1702 7.24023ZM39.6123 0.5V11H38.3477V0.5H39.6123ZM39.3116 7.02148L38.7852 7.00098C38.7898 6.49512 38.8649 6.02799 39.0108 5.59961C39.1566 5.16667 39.3617 4.79069 39.626 4.47168C39.8903 4.15267 40.2048 3.90658 40.5694 3.7334C40.9385 3.55566 41.3464 3.4668 41.793 3.4668C42.1576 3.4668 42.4857 3.51693 42.7774 3.61719C43.069 3.71289 43.3174 3.86784 43.5225 4.08203C43.7321 4.29622 43.8916 4.57422 44.001 4.91602C44.1104 5.25326 44.1651 5.66569 44.1651 6.15332V11H42.8936V6.13965C42.8936 5.75228 42.8366 5.44238 42.7227 5.20996C42.6088 4.97298 42.4424 4.80208 42.2237 4.69727C42.0049 4.58789 41.736 4.5332 41.417 4.5332C41.1026 4.5332 40.8155 4.59928 40.5557 4.73145C40.3005 4.86361 40.0795 5.0459 39.8926 5.27832C39.7103 5.51074 39.5668 5.77734 39.462 6.07812C39.3617 6.37435 39.3116 6.6888 39.3116 7.02148ZM49.4353 3.60352V4.57422H45.4363V3.60352H49.4353ZM46.7898 1.80566H48.0545V9.16797C48.0545 9.41862 48.0932 9.60775 48.1707 9.73535C48.2481 9.86296 48.3484 9.94727 48.4714 9.98828C48.5945 10.0293 48.7267 10.0498 48.8679 10.0498C48.9727 10.0498 49.0821 10.0407 49.1961 10.0225C49.3145 9.99967 49.4034 9.98145 49.4627 9.96777L49.4695 11C49.3692 11.0319 49.2371 11.0615 49.073 11.0889C48.9135 11.1208 48.7198 11.1367 48.492 11.1367C48.1821 11.1367 47.8972 11.0752 47.6375 10.9521C47.3777 10.8291 47.1703 10.624 47.0154 10.3369C46.865 10.0452 46.7898 9.65332 46.7898 9.16113V1.80566ZM55.5054 9.03809C55.5054 8.85579 55.4643 8.68717 55.3823 8.53223C55.3048 8.37272 55.143 8.22917 54.897 8.10156C54.6554 7.9694 54.2908 7.85547 53.8032 7.75977C53.393 7.67318 53.0216 7.57064 52.6889 7.45215C52.3608 7.33366 52.0805 7.1901 51.8481 7.02148C51.6203 6.85286 51.4448 6.65462 51.3218 6.42676C51.1987 6.19889 51.1372 5.93229 51.1372 5.62695C51.1372 5.33529 51.201 5.05957 51.3286 4.7998C51.4608 4.54004 51.6453 4.3099 51.8823 4.10938C52.1238 3.90885 52.4132 3.75163 52.7505 3.6377C53.0877 3.52376 53.4637 3.4668 53.8784 3.4668C54.4708 3.4668 54.9767 3.57161 55.396 3.78125C55.8152 3.99089 56.1365 4.27116 56.3598 4.62207C56.5832 4.96842 56.6948 5.35352 56.6948 5.77734H55.4302C55.4302 5.57227 55.3686 5.37402 55.2456 5.18262C55.1271 4.98665 54.9516 4.82487 54.7192 4.69727C54.4914 4.56966 54.2111 4.50586 53.8784 4.50586C53.5275 4.50586 53.2427 4.56055 53.0239 4.66992C52.8097 4.77474 52.6525 4.90918 52.5522 5.07324C52.4565 5.2373 52.4087 5.41048 52.4087 5.59277C52.4087 5.72949 52.4315 5.85254 52.477 5.96191C52.5272 6.06673 52.6138 6.16471 52.7368 6.25586C52.8598 6.34245 53.033 6.42448 53.2563 6.50195C53.4796 6.57943 53.7645 6.6569 54.1108 6.73438C54.7169 6.87109 55.216 7.03516 55.6079 7.22656C55.9998 7.41797 56.2915 7.65267 56.4829 7.93066C56.6743 8.20866 56.77 8.5459 56.77 8.94238C56.77 9.26595 56.7016 9.56217 56.5649 9.83105C56.4328 10.0999 56.2391 10.3324 55.9839 10.5283C55.7332 10.7197 55.4324 10.8701 55.0815 10.9795C54.7352 11.0843 54.3455 11.1367 53.9126 11.1367C53.2609 11.1367 52.7095 11.0205 52.2583 10.7881C51.8071 10.5557 51.4653 10.2549 51.2329 9.88574C51.0005 9.5166 50.8843 9.12695 50.8843 8.7168H52.1557C52.174 9.06315 52.2742 9.33887 52.4565 9.54395C52.6388 9.74447 52.8621 9.88802 53.1264 9.97461C53.3908 10.0566 53.6528 10.0977 53.9126 10.0977C54.2589 10.0977 54.5483 10.0521 54.7807 9.96094C55.0177 9.86979 55.1977 9.74447 55.3208 9.58496C55.4438 9.42546 55.5054 9.24316 55.5054 9.03809ZM63.7284 4.76562V11H62.4638V3.60352H63.6943L63.7284 4.76562ZM66.039 3.5625L66.0322 4.73828C65.9273 4.71549 65.8271 4.70182 65.7314 4.69727C65.6402 4.68815 65.5354 4.68359 65.4169 4.68359C65.1252 4.68359 64.8678 4.72917 64.6445 4.82031C64.4211 4.91146 64.232 5.03906 64.0771 5.20312C63.9221 5.36719 63.7991 5.56315 63.7079 5.79102C63.6213 6.01432 63.5644 6.26042 63.537 6.5293L63.1816 6.73438C63.1816 6.28776 63.2249 5.86849 63.3114 5.47656C63.4026 5.08464 63.5416 4.73828 63.7284 4.4375C63.9153 4.13216 64.1523 3.89518 64.4394 3.72656C64.731 3.55339 65.0774 3.4668 65.4784 3.4668C65.5696 3.4668 65.6744 3.47819 65.7929 3.50098C65.9114 3.51921 65.9934 3.53971 66.039 3.5625ZM70.4205 11.1367C69.9056 11.1367 69.4385 11.0501 69.0192 10.877C68.6045 10.6992 68.2467 10.4508 67.9459 10.1318C67.6497 9.81283 67.4218 9.43457 67.2623 8.99707C67.1028 8.55957 67.0231 8.08105 67.0231 7.56152V7.27441C67.0231 6.67285 67.112 6.13737 67.2897 5.66797C67.4674 5.19401 67.709 4.79297 68.0143 4.46484C68.3196 4.13672 68.666 3.88835 69.0534 3.71973C69.4407 3.55111 69.8418 3.4668 70.2565 3.4668C70.7851 3.4668 71.2409 3.55794 71.6237 3.74023C72.011 3.92253 72.3278 4.17773 72.5739 4.50586C72.82 4.82943 73.0023 5.21224 73.1207 5.6543C73.2392 6.0918 73.2985 6.57031 73.2985 7.08984V7.65723H67.775V6.625H72.0338V6.5293C72.0156 6.20117 71.9472 5.88216 71.8288 5.57227C71.7148 5.26237 71.5325 5.00716 71.2819 4.80664C71.0312 4.60612 70.6894 4.50586 70.2565 4.50586C69.9694 4.50586 69.7051 4.56738 69.4635 4.69043C69.222 4.80892 69.0146 4.98665 68.8414 5.22363C68.6683 5.46061 68.5338 5.75 68.4381 6.0918C68.3424 6.43359 68.2946 6.8278 68.2946 7.27441V7.56152C68.2946 7.91243 68.3424 8.24284 68.4381 8.55273C68.5384 8.85807 68.6819 9.12695 68.8688 9.35938C69.0602 9.5918 69.2903 9.77409 69.5592 9.90625C69.8327 10.0384 70.1426 10.1045 70.4889 10.1045C70.9355 10.1045 71.3138 10.0133 71.6237 9.83105C71.9336 9.64876 72.2047 9.40495 72.4371 9.09961L73.2028 9.70801C73.0433 9.94954 72.8405 10.1797 72.5944 10.3984C72.3483 10.6172 72.0452 10.7949 71.6852 10.9316C71.3297 11.0684 70.9082 11.1367 70.4205 11.1367ZM79.3617 9.03809C79.3617 8.85579 79.3207 8.68717 79.2386 8.53223C79.1612 8.37272 78.9994 8.22917 78.7533 8.10156C78.5117 7.9694 78.1472 7.85547 77.6595 7.75977C77.2494 7.67318 76.878 7.57064 76.5453 7.45215C76.2171 7.33366 75.9369 7.1901 75.7045 7.02148C75.4766 6.85286 75.3011 6.65462 75.1781 6.42676C75.055 6.19889 74.9935 5.93229 74.9935 5.62695C74.9935 5.33529 75.0573 5.05957 75.1849 4.7998C75.3171 4.54004 75.5017 4.3099 75.7386 4.10938C75.9802 3.90885 76.2696 3.75163 76.6068 3.6377C76.944 3.52376 77.32 3.4668 77.7347 3.4668C78.3272 3.4668 78.833 3.57161 79.2523 3.78125C79.6716 3.99089 79.9929 4.27116 80.2162 4.62207C80.4395 4.96842 80.5511 5.35352 80.5511 5.77734H79.2865C79.2865 5.57227 79.225 5.37402 79.1019 5.18262C78.9834 4.98665 78.808 4.82487 78.5755 4.69727C78.3477 4.56966 78.0674 4.50586 77.7347 4.50586C77.3838 4.50586 77.099 4.56055 76.8802 4.66992C76.666 4.77474 76.5088 4.90918 76.4086 5.07324C76.3129 5.2373 76.265 5.41048 76.265 5.59277C76.265 5.72949 76.2878 5.85254 76.3334 5.96191C76.3835 6.06673 76.4701 6.16471 76.5931 6.25586C76.7162 6.34245 76.8893 6.42448 77.1127 6.50195C77.336 6.57943 77.6208 6.6569 77.9671 6.73438C78.5733 6.87109 79.0723 7.03516 79.4642 7.22656C79.8561 7.41797 80.1478 7.65267 80.3392 7.93066C80.5306 8.20866 80.6263 8.5459 80.6263 8.94238C80.6263 9.26595 80.558 9.56217 80.4212 9.83105C80.2891 10.0999 80.0954 10.3324 79.8402 10.5283C79.5895 10.7197 79.2888 10.8701 78.9379 10.9795C78.5915 11.0843 78.2018 11.1367 77.7689 11.1367C77.1172 11.1367 76.5658 11.0205 76.1146 10.7881C75.6634 10.5557 75.3216 10.2549 75.0892 9.88574C74.8568 9.5166 74.7406 9.12695 74.7406 8.7168H76.0121C76.0303 9.06315 76.1306 9.33887 76.3129 9.54395C76.4951 9.74447 76.7184 9.88802 76.9828 9.97461C77.2471 10.0566 77.5091 10.0977 77.7689 10.0977C78.1153 10.0977 78.4046 10.0521 78.6371 9.96094C78.874 9.86979 79.0541 9.74447 79.1771 9.58496C79.3002 9.42546 79.3617 9.24316 79.3617 9.03809ZM85.6368 11.1367C85.1218 11.1367 84.6547 11.0501 84.2354 10.877C83.8207 10.6992 83.463 10.4508 83.1622 10.1318C82.866 9.81283 82.6381 9.43457 82.4786 8.99707C82.3191 8.55957 82.2393 8.08105 82.2393 7.56152V7.27441C82.2393 6.67285 82.3282 6.13737 82.5059 5.66797C82.6837 5.19401 82.9252 4.79297 83.2305 4.46484C83.5359 4.13672 83.8822 3.88835 84.2696 3.71973C84.657 3.55111 85.058 3.4668 85.4727 3.4668C86.0014 3.4668 86.4571 3.55794 86.8399 3.74023C87.2273 3.92253 87.544 4.17773 87.7901 4.50586C88.0362 4.82943 88.2185 5.21224 88.337 5.6543C88.4555 6.0918 88.5147 6.57031 88.5147 7.08984V7.65723H82.9913V6.625H87.2501V6.5293C87.2318 6.20117 87.1635 5.88216 87.045 5.57227C86.9311 5.26237 86.7488 5.00716 86.4981 4.80664C86.2475 4.60612 85.9057 4.50586 85.4727 4.50586C85.1856 4.50586 84.9213 4.56738 84.6798 4.69043C84.4382 4.80892 84.2309 4.98665 84.0577 5.22363C83.8845 5.46061 83.7501 5.75 83.6544 6.0918C83.5587 6.43359 83.5108 6.8278 83.5108 7.27441V7.56152C83.5108 7.91243 83.5587 8.24284 83.6544 8.55273C83.7546 8.85807 83.8982 9.12695 84.085 9.35938C84.2764 9.5918 84.5066 9.77409 84.7755 9.90625C85.0489 10.0384 85.3588 10.1045 85.7052 10.1045C86.1518 10.1045 86.53 10.0133 86.8399 9.83105C87.1498 9.64876 87.421 9.40495 87.6534 9.09961L88.419 9.70801C88.2595 9.94954 88.0567 10.1797 87.8106 10.3984C87.5645 10.6172 87.2615 10.7949 86.9014 10.9316C86.546 11.0684 86.1244 11.1367 85.6368 11.1367ZM91.5359 4.76562V11H90.2713V3.60352H91.5018L91.5359 4.76562ZM93.8465 3.5625L93.8396 4.73828C93.7348 4.71549 93.6346 4.70182 93.5389 4.69727C93.4477 4.68815 93.3429 4.68359 93.2244 4.68359C92.9327 4.68359 92.6753 4.72917 92.452 4.82031C92.2286 4.91146 92.0395 5.03906 91.8846 5.20312C91.7296 5.36719 91.6066 5.56315 91.5154 5.79102C91.4288 6.01432 91.3719 6.26042 91.3445 6.5293L90.9891 6.73438C90.9891 6.28776 91.0324 5.86849 91.1189 5.47656C91.2101 5.08464 91.3491 4.73828 91.5359 4.4375C91.7228 4.13216 91.9598 3.89518 92.2469 3.72656C92.5385 3.55339 92.8849 3.4668 93.2859 3.4668C93.3771 3.4668 93.4819 3.47819 93.6004 3.50098C93.7189 3.51921 93.8009 3.53971 93.8465 3.5625ZM97.6675 9.8584L99.6909 3.60352H100.983L98.3238 11H97.4761L97.6675 9.8584ZM95.979 3.60352L98.064 9.89258L98.2075 11H97.3599L94.6802 3.60352H95.979ZM105.453 11.1367C104.938 11.1367 104.471 11.0501 104.052 10.877C103.637 10.6992 103.28 10.4508 102.979 10.1318C102.683 9.81283 102.455 9.43457 102.295 8.99707C102.136 8.55957 102.056 8.08105 102.056 7.56152V7.27441C102.056 6.67285 102.145 6.13737 102.323 5.66797C102.5 5.19401 102.742 4.79297 103.047 4.46484C103.352 4.13672 103.699 3.88835 104.086 3.71973C104.474 3.55111 104.875 3.4668 105.289 3.4668C105.818 3.4668 106.274 3.55794 106.656 3.74023C107.044 3.92253 107.361 4.17773 107.607 4.50586C107.853 4.82943 108.035 5.21224 108.154 5.6543C108.272 6.0918 108.331 6.57031 108.331 7.08984V7.65723H102.808V6.625H107.067V6.5293C107.048 6.20117 106.98 5.88216 106.862 5.57227C106.748 5.26237 106.565 5.00716 106.315 4.80664C106.064 4.60612 105.722 4.50586 105.289 4.50586C105.002 4.50586 104.738 4.56738 104.496 4.69043C104.255 4.80892 104.047 4.98665 103.874 5.22363C103.701 5.46061 103.567 5.75 103.471 6.0918C103.375 6.43359 103.327 6.8278 103.327 7.27441V7.56152C103.327 7.91243 103.375 8.24284 103.471 8.55273C103.571 8.85807 103.715 9.12695 103.902 9.35938C104.093 9.5918 104.323 9.77409 104.592 9.90625C104.865 10.0384 105.175 10.1045 105.522 10.1045C105.968 10.1045 106.347 10.0133 106.656 9.83105C106.966 9.64876 107.238 9.40495 107.47 9.09961L108.236 9.70801C108.076 9.94954 107.873 10.1797 107.627 10.3984C107.381 10.6172 107.078 10.7949 106.718 10.9316C106.363 11.0684 105.941 11.1367 105.453 11.1367ZM114.75 9.56445V0.5H116.021V11H114.859L114.75 9.56445ZM109.773 7.38379V7.24023C109.773 6.67513 109.842 6.16243 109.978 5.70215C110.12 5.2373 110.318 4.83854 110.573 4.50586C110.833 4.17318 111.141 3.91797 111.496 3.74023C111.856 3.55794 112.257 3.4668 112.699 3.4668C113.164 3.4668 113.57 3.54883 113.916 3.71289C114.267 3.8724 114.563 4.1071 114.805 4.41699C115.051 4.72233 115.244 5.09147 115.386 5.52441C115.527 5.95736 115.625 6.44727 115.68 6.99414V7.62305C115.63 8.16536 115.532 8.65299 115.386 9.08594C115.244 9.51888 115.051 9.88802 114.805 10.1934C114.563 10.4987 114.267 10.7334 113.916 10.8975C113.565 11.057 113.155 11.1367 112.686 11.1367C112.253 11.1367 111.856 11.0433 111.496 10.8564C111.141 10.6696 110.833 10.4076 110.573 10.0703C110.318 9.73307 110.12 9.33659 109.978 8.88086C109.842 8.42057 109.773 7.92155 109.773 7.38379ZM111.045 7.24023V7.38379C111.045 7.75293 111.081 8.09928 111.154 8.42285C111.232 8.74642 111.35 9.03125 111.51 9.27734C111.669 9.52344 111.872 9.71712 112.118 9.8584C112.364 9.99512 112.658 10.0635 113 10.0635C113.419 10.0635 113.763 9.97461 114.032 9.79688C114.306 9.61914 114.524 9.38444 114.688 9.09277C114.853 8.80111 114.98 8.48438 115.071 8.14258V6.49512C115.017 6.24447 114.937 6.00293 114.832 5.77051C114.732 5.53353 114.6 5.32389 114.436 5.1416C114.276 4.95475 114.078 4.80664 113.841 4.69727C113.608 4.58789 113.333 4.5332 113.014 4.5332C112.667 4.5332 112.369 4.60612 112.118 4.75195C111.872 4.89323 111.669 5.08919 111.51 5.33984C111.35 5.58594 111.232 5.87305 111.154 6.20117C111.081 6.52474 111.045 6.87109 111.045 7.24023ZM126.712 6.52246H125.222L125.208 5.64746H126.596C126.787 5.6429 126.965 5.60872 127.129 5.54492C127.298 5.48112 127.432 5.38997 127.533 5.27148C127.637 5.14844 127.69 4.99805 127.69 4.82031C127.69 4.59245 127.651 4.41243 127.574 4.28027C127.496 4.14811 127.366 4.05241 127.184 3.99316C127.006 3.93392 126.762 3.9043 126.453 3.9043H125.523V8.83301H124.559V3.03613H126.453C126.904 3.03613 127.293 3.09993 127.621 3.22754C127.95 3.35514 128.203 3.54883 128.38 3.80859C128.558 4.0638 128.647 4.38737 128.647 4.7793C128.647 5.02539 128.59 5.24642 128.476 5.44238C128.362 5.63835 128.196 5.80697 127.977 5.94824C127.758 6.08952 127.492 6.20345 127.177 6.29004C127.163 6.29004 127.148 6.30599 127.129 6.33789C127.116 6.36523 127.102 6.37891 127.088 6.37891C127.011 6.42448 126.961 6.45866 126.938 6.48145C126.92 6.49967 126.899 6.51107 126.876 6.51562C126.858 6.52018 126.803 6.52246 126.712 6.52246ZM126.644 6.52246L126.781 5.90723C127.487 5.90723 127.968 6.05762 128.223 6.3584C128.483 6.65462 128.613 7.0306 128.613 7.48633V7.85547C128.613 8.02409 128.622 8.18587 128.64 8.34082C128.658 8.49121 128.688 8.61882 128.729 8.72363V8.83301H127.738C127.692 8.71452 127.665 8.5459 127.656 8.32715C127.651 8.1084 127.649 7.94889 127.649 7.84863V7.49316C127.649 7.16048 127.571 6.91667 127.416 6.76172C127.266 6.60221 127.009 6.52246 126.644 6.52246ZM122.467 6.0166C122.467 6.62272 122.572 7.18783 122.782 7.71191C122.991 8.236 123.283 8.69401 123.657 9.08594C124.03 9.47786 124.463 9.7832 124.955 10.002C125.448 10.2207 125.974 10.3301 126.535 10.3301C127.095 10.3301 127.619 10.2207 128.107 10.002C128.599 9.7832 129.03 9.47786 129.399 9.08594C129.773 8.69401 130.064 8.236 130.274 7.71191C130.483 7.18783 130.588 6.62272 130.588 6.0166C130.588 5.40592 130.483 4.84082 130.274 4.32129C130.064 3.80176 129.773 3.34831 129.399 2.96094C129.03 2.56901 128.599 2.26595 128.107 2.05176C127.619 1.83301 127.095 1.72363 126.535 1.72363C125.974 1.72363 125.448 1.83301 124.955 2.05176C124.463 2.26595 124.03 2.56901 123.657 2.96094C123.283 3.34831 122.991 3.80176 122.782 4.32129C122.572 4.84082 122.467 5.40592 122.467 6.0166ZM121.681 6.0166C121.681 5.29199 121.806 4.61979 122.057 4C122.308 3.38021 122.656 2.84017 123.103 2.37988C123.55 1.91504 124.065 1.55501 124.648 1.2998C125.236 1.04004 125.865 0.910156 126.535 0.910156C127.204 0.910156 127.831 1.04004 128.414 1.2998C129.002 1.55501 129.517 1.91504 129.959 2.37988C130.406 2.84017 130.755 3.38021 131.005 4C131.256 4.61979 131.381 5.29199 131.381 6.0166C131.381 6.74121 131.256 7.41341 131.005 8.0332C130.755 8.65299 130.406 9.19759 129.959 9.66699C129.517 10.1318 129.002 10.4941 128.414 10.7539C127.831 11.0137 127.204 11.1436 126.535 11.1436C125.865 11.1436 125.236 11.0137 124.648 10.7539C124.065 10.4941 123.55 10.1318 123.103 9.66699C122.656 9.19759 122.308 8.65299 122.057 8.0332C121.806 7.41341 121.681 6.74121 121.681 6.0166ZM141.587 9.29102V3.60352H142.858V11H141.648L141.587 9.29102ZM141.826 7.73242L142.352 7.71875C142.352 8.21094 142.3 8.66667 142.195 9.08594C142.095 9.50065 141.931 9.86068 141.703 10.166C141.475 10.4714 141.177 10.7106 140.807 10.8838C140.438 11.0524 139.989 11.1367 139.461 11.1367C139.101 11.1367 138.77 11.0843 138.47 10.9795C138.173 10.8747 137.918 10.7129 137.704 10.4941C137.49 10.2754 137.323 9.99056 137.205 9.63965C137.091 9.28874 137.034 8.86719 137.034 8.375V3.60352H138.299V8.38867C138.299 8.72135 138.335 8.99707 138.408 9.21582C138.486 9.43001 138.588 9.60091 138.716 9.72852C138.848 9.85156 138.994 9.93815 139.153 9.98828C139.317 10.0384 139.486 10.0635 139.659 10.0635C140.197 10.0635 140.623 9.96094 140.937 9.75586C141.252 9.54622 141.477 9.26595 141.614 8.91504C141.755 8.55957 141.826 8.16536 141.826 7.73242ZM146.44 3.60352V11H145.169V3.60352H146.44ZM145.073 1.6416C145.073 1.43652 145.134 1.26335 145.257 1.12207C145.385 0.980794 145.572 0.910156 145.818 0.910156C146.059 0.910156 146.244 0.980794 146.372 1.12207C146.504 1.26335 146.57 1.43652 146.57 1.6416C146.57 1.83757 146.504 2.00618 146.372 2.14746C146.244 2.28418 146.059 2.35254 145.818 2.35254C145.572 2.35254 145.385 2.28418 145.257 2.14746C145.134 2.00618 145.073 1.83757 145.073 1.6416ZM150.637 11H149.372V2.82422C149.372 2.29102 149.468 1.84212 149.659 1.47754C149.855 1.1084 150.136 0.830404 150.5 0.643555C150.865 0.452148 151.298 0.356445 151.799 0.356445C151.945 0.356445 152.091 0.36556 152.237 0.383789C152.387 0.402018 152.533 0.429362 152.674 0.46582L152.606 1.49805C152.51 1.47526 152.401 1.45931 152.278 1.4502C152.159 1.44108 152.041 1.43652 151.922 1.43652C151.653 1.43652 151.421 1.49121 151.225 1.60059C151.033 1.7054 150.888 1.86035 150.787 2.06543C150.687 2.27051 150.637 2.52344 150.637 2.82422V11ZM152.209 3.60352V4.57422H148.203V3.60352H152.209ZM155.162 4.76562V11H153.897V3.60352H155.128L155.162 4.76562ZM157.473 3.5625L157.466 4.73828C157.361 4.71549 157.261 4.70182 157.165 4.69727C157.074 4.68815 156.969 4.68359 156.851 4.68359C156.559 4.68359 156.301 4.72917 156.078 4.82031C155.855 4.91146 155.666 5.03906 155.511 5.20312C155.356 5.36719 155.233 5.56315 155.142 5.79102C155.055 6.01432 154.998 6.26042 154.971 6.5293L154.615 6.73438C154.615 6.28776 154.659 5.86849 154.745 5.47656C154.836 5.08464 154.975 4.73828 155.162 4.4375C155.349 4.13216 155.586 3.89518 155.873 3.72656C156.165 3.55339 156.511 3.4668 156.912 3.4668C157.003 3.4668 157.108 3.47819 157.227 3.50098C157.345 3.51921 157.427 3.53971 157.473 3.5625ZM161.123 10.2344L163.18 3.60352H164.534L161.567 12.1416C161.499 12.3239 161.408 12.5199 161.294 12.7295C161.184 12.9437 161.043 13.1465 160.87 13.3379C160.697 13.5293 160.487 13.6842 160.241 13.8027C159.999 13.9258 159.71 13.9873 159.373 13.9873C159.273 13.9873 159.145 13.9736 158.99 13.9463C158.835 13.9189 158.726 13.8962 158.662 13.8779L158.655 12.8525C158.691 12.8571 158.748 12.8617 158.826 12.8662C158.908 12.8753 158.965 12.8799 158.997 12.8799C159.284 12.8799 159.528 12.8411 159.728 12.7637C159.929 12.6908 160.097 12.5654 160.234 12.3877C160.375 12.2145 160.496 11.9753 160.596 11.6699L161.123 10.2344ZM159.612 3.60352L161.533 9.3457L161.861 10.6787L160.952 11.1436L158.231 3.60352H159.612ZM165.238 10.3301C165.238 10.1159 165.304 9.93587 165.436 9.79004C165.573 9.63965 165.769 9.56445 166.024 9.56445C166.279 9.56445 166.473 9.63965 166.605 9.79004C166.742 9.93587 166.81 10.1159 166.81 10.3301C166.81 10.5397 166.742 10.7174 166.605 10.8633C166.473 11.0091 166.279 11.082 166.024 11.082C165.769 11.082 165.573 11.0091 165.436 10.8633C165.304 10.7174 165.238 10.5397 165.238 10.3301ZM172.149 10.0977C172.449 10.0977 172.727 10.0361 172.983 9.91309C173.238 9.79004 173.447 9.62142 173.611 9.40723C173.776 9.18848 173.869 8.9401 173.892 8.66211H175.095C175.072 9.09961 174.924 9.50749 174.651 9.88574C174.382 10.2594 174.028 10.5625 173.591 10.7949C173.153 11.0228 172.673 11.1367 172.149 11.1367C171.593 11.1367 171.107 11.0387 170.693 10.8428C170.282 10.6468 169.941 10.3779 169.667 10.0361C169.398 9.69434 169.195 9.30241 169.059 8.86035C168.927 8.41374 168.861 7.94206 168.861 7.44531V7.1582C168.861 6.66146 168.927 6.19206 169.059 5.75C169.195 5.30339 169.398 4.90918 169.667 4.56738C169.941 4.22559 170.282 3.95671 170.693 3.76074C171.107 3.56478 171.593 3.4668 172.149 3.4668C172.727 3.4668 173.233 3.58529 173.666 3.82227C174.099 4.05469 174.439 4.3737 174.685 4.7793C174.935 5.18034 175.072 5.63607 175.095 6.14648H173.892C173.869 5.84115 173.782 5.56543 173.632 5.31934C173.486 5.07324 173.286 4.87728 173.03 4.73145C172.78 4.58105 172.486 4.50586 172.149 4.50586C171.761 4.50586 171.435 4.58333 171.171 4.73828C170.911 4.88867 170.704 5.09375 170.549 5.35352C170.399 5.60872 170.289 5.89355 170.221 6.20801C170.157 6.5179 170.125 6.83464 170.125 7.1582V7.44531C170.125 7.76888 170.157 8.08789 170.221 8.40234C170.285 8.7168 170.392 9.00163 170.542 9.25684C170.697 9.51204 170.904 9.71712 171.164 9.87207C171.429 10.0225 171.757 10.0977 172.149 10.0977ZM176.462 7.38379V7.22656C176.462 6.69336 176.539 6.19889 176.694 5.74316C176.849 5.28288 177.072 4.88411 177.364 4.54688C177.656 4.20508 178.009 3.94076 178.424 3.75391C178.838 3.5625 179.303 3.4668 179.818 3.4668C180.338 3.4668 180.805 3.5625 181.22 3.75391C181.639 3.94076 181.994 4.20508 182.286 4.54688C182.582 4.88411 182.808 5.28288 182.963 5.74316C183.118 6.19889 183.195 6.69336 183.195 7.22656V7.38379C183.195 7.91699 183.118 8.41146 182.963 8.86719C182.808 9.32292 182.582 9.72168 182.286 10.0635C181.994 10.4007 181.641 10.665 181.226 10.8564C180.816 11.0433 180.351 11.1367 179.832 11.1367C179.312 11.1367 178.845 11.0433 178.431 10.8564C178.016 10.665 177.66 10.4007 177.364 10.0635C177.072 9.72168 176.849 9.32292 176.694 8.86719C176.539 8.41146 176.462 7.91699 176.462 7.38379ZM177.726 7.22656V7.38379C177.726 7.75293 177.77 8.10156 177.856 8.42969C177.943 8.75326 178.073 9.04036 178.246 9.29102C178.424 9.54167 178.645 9.73991 178.909 9.88574C179.173 10.027 179.481 10.0977 179.832 10.0977C180.178 10.0977 180.481 10.027 180.741 9.88574C181.005 9.73991 181.224 9.54167 181.397 9.29102C181.571 9.04036 181.7 8.75326 181.787 8.42969C181.878 8.10156 181.924 7.75293 181.924 7.38379V7.22656C181.924 6.86198 181.878 6.5179 181.787 6.19434C181.7 5.86621 181.568 5.57682 181.391 5.32617C181.217 5.07096 180.999 4.87044 180.734 4.72461C180.474 4.57878 180.169 4.50586 179.818 4.50586C179.472 4.50586 179.167 4.57878 178.902 4.72461C178.642 4.87044 178.424 5.07096 178.246 5.32617C178.073 5.57682 177.943 5.86621 177.856 6.19434C177.77 6.5179 177.726 6.86198 177.726 7.22656ZM186.319 5.07324V11H185.047V3.60352H186.251L186.319 5.07324ZM186.059 7.02148L185.471 7.00098C185.476 6.49512 185.542 6.02799 185.67 5.59961C185.797 5.16667 185.986 4.79069 186.237 4.47168C186.488 4.15267 186.8 3.90658 187.173 3.7334C187.547 3.55566 187.98 3.4668 188.472 3.4668C188.819 3.4668 189.138 3.51693 189.429 3.61719C189.721 3.71289 189.974 3.86556 190.188 4.0752C190.402 4.28483 190.569 4.55371 190.687 4.88184C190.806 5.20996 190.865 5.60645 190.865 6.07129V11H189.6V6.13281C189.6 5.74544 189.534 5.43555 189.402 5.20312C189.274 4.9707 189.092 4.80208 188.855 4.69727C188.618 4.58789 188.34 4.5332 188.021 4.5332C187.647 4.5332 187.335 4.59928 187.085 4.73145C186.834 4.86361 186.633 5.0459 186.483 5.27832C186.333 5.51074 186.223 5.77734 186.155 6.07812C186.091 6.37435 186.059 6.6888 186.059 7.02148ZM190.851 6.32422L190.004 6.58398C190.008 6.17839 190.074 5.78874 190.202 5.41504C190.334 5.04134 190.523 4.70866 190.769 4.41699C191.02 4.12533 191.327 3.89518 191.692 3.72656C192.057 3.55339 192.474 3.4668 192.943 3.4668C193.339 3.4668 193.69 3.51921 193.996 3.62402C194.306 3.72884 194.565 3.89062 194.775 4.10938C194.989 4.32357 195.151 4.59928 195.26 4.93652C195.37 5.27376 195.424 5.6748 195.424 6.13965V11H194.153V6.12598C194.153 5.71126 194.087 5.38997 193.955 5.16211C193.827 4.92969 193.645 4.7679 193.408 4.67676C193.175 4.58105 192.897 4.5332 192.574 4.5332C192.296 4.5332 192.05 4.58105 191.836 4.67676C191.621 4.77246 191.441 4.90462 191.296 5.07324C191.15 5.2373 191.038 5.42643 190.961 5.64062C190.888 5.85482 190.851 6.08268 190.851 6.32422ZM206.382 1.04688V12.8457H205.363V1.04688H206.382ZM216.17 1.04688V11H214.871V1.04688H216.17ZM219.369 1.04688V2.12695H211.679V1.04688H219.369ZM223.32 11.1367C222.805 11.1367 222.338 11.0501 221.919 10.877C221.504 10.6992 221.146 10.4508 220.846 10.1318C220.549 9.81283 220.322 9.43457 220.162 8.99707C220.003 8.55957 219.923 8.08105 219.923 7.56152V7.27441C219.923 6.67285 220.012 6.13737 220.189 5.66797C220.367 5.19401 220.609 4.79297 220.914 4.46484C221.219 4.13672 221.566 3.88835 221.953 3.71973C222.34 3.55111 222.741 3.4668 223.156 3.4668C223.685 3.4668 224.141 3.55794 224.523 3.74023C224.911 3.92253 225.227 4.17773 225.474 4.50586C225.72 4.82943 225.902 5.21224 226.02 5.6543C226.139 6.0918 226.198 6.57031 226.198 7.08984V7.65723H220.675V6.625H224.934V6.5293C224.915 6.20117 224.847 5.88216 224.728 5.57227C224.615 5.26237 224.432 5.00716 224.182 4.80664C223.931 4.60612 223.589 4.50586 223.156 4.50586C222.869 4.50586 222.605 4.56738 222.363 4.69043C222.122 4.80892 221.914 4.98665 221.741 5.22363C221.568 5.46061 221.434 5.75 221.338 6.0918C221.242 6.43359 221.194 6.8278 221.194 7.27441V7.56152C221.194 7.91243 221.242 8.24284 221.338 8.55273C221.438 8.85807 221.582 9.12695 221.768 9.35938C221.96 9.5918 222.19 9.77409 222.459 9.90625C222.732 10.0384 223.042 10.1045 223.389 10.1045C223.835 10.1045 224.213 10.0133 224.523 9.83105C224.833 9.64876 225.104 9.40495 225.337 9.09961L226.102 9.70801C225.943 9.94954 225.74 10.1797 225.494 10.3984C225.248 10.6172 224.945 10.7949 224.585 10.9316C224.229 11.0684 223.808 11.1367 223.32 11.1367ZM229.219 4.76562V11H227.955V3.60352H229.185L229.219 4.76562ZM231.53 3.5625L231.523 4.73828C231.418 4.71549 231.318 4.70182 231.222 4.69727C231.131 4.68815 231.026 4.68359 230.908 4.68359C230.616 4.68359 230.359 4.72917 230.135 4.82031C229.912 4.91146 229.723 5.03906 229.568 5.20312C229.413 5.36719 229.29 5.56315 229.199 5.79102C229.112 6.01432 229.055 6.26042 229.028 6.5293L228.673 6.73438C228.673 6.28776 228.716 5.86849 228.802 5.47656C228.894 5.08464 229.033 4.73828 229.219 4.4375C229.406 4.13216 229.643 3.89518 229.93 3.72656C230.222 3.55339 230.568 3.4668 230.969 3.4668C231.061 3.4668 231.165 3.47819 231.284 3.50098C231.402 3.51921 231.484 3.53971 231.53 3.5625ZM234.237 5.07324V11H232.965V3.60352H234.168L234.237 5.07324ZM233.977 7.02148L233.389 7.00098C233.394 6.49512 233.46 6.02799 233.587 5.59961C233.715 5.16667 233.904 4.79069 234.155 4.47168C234.405 4.15267 234.717 3.90658 235.091 3.7334C235.465 3.55566 235.898 3.4668 236.39 3.4668C236.736 3.4668 237.055 3.51693 237.347 3.61719C237.639 3.71289 237.892 3.86556 238.106 4.0752C238.32 4.28483 238.486 4.55371 238.605 4.88184C238.723 5.20996 238.783 5.60645 238.783 6.07129V11H237.518V6.13281C237.518 5.74544 237.452 5.43555 237.32 5.20312C237.192 4.9707 237.01 4.80208 236.773 4.69727C236.536 4.58789 236.258 4.5332 235.939 4.5332C235.565 4.5332 235.253 4.59928 235.002 4.73145C234.752 4.86361 234.551 5.0459 234.401 5.27832C234.25 5.51074 234.141 5.77734 234.073 6.07812C234.009 6.37435 233.977 6.6888 233.977 7.02148ZM238.769 6.32422L237.921 6.58398C237.926 6.17839 237.992 5.78874 238.119 5.41504C238.252 5.04134 238.441 4.70866 238.687 4.41699C238.938 4.12533 239.245 3.89518 239.61 3.72656C239.974 3.55339 240.391 3.4668 240.861 3.4668C241.257 3.4668 241.608 3.51921 241.913 3.62402C242.223 3.72884 242.483 3.89062 242.693 4.10938C242.907 4.32357 243.069 4.59928 243.178 4.93652C243.287 5.27376 243.342 5.6748 243.342 6.13965V11H242.071V6.12598C242.071 5.71126 242.005 5.38997 241.872 5.16211C241.745 4.92969 241.563 4.7679 241.326 4.67676C241.093 4.58105 240.815 4.5332 240.492 4.5332C240.214 4.5332 239.967 4.58105 239.753 4.67676C239.539 4.77246 239.359 4.90462 239.213 5.07324C239.067 5.2373 238.956 5.42643 238.878 5.64062C238.805 5.85482 238.769 6.08268 238.769 6.32422ZM249.843 9.03809C249.843 8.85579 249.802 8.68717 249.72 8.53223C249.642 8.37272 249.481 8.22917 249.234 8.10156C248.993 7.9694 248.628 7.85547 248.141 7.75977C247.731 7.67318 247.359 7.57064 247.026 7.45215C246.698 7.33366 246.418 7.1901 246.186 7.02148C245.958 6.85286 245.782 6.65462 245.659 6.42676C245.536 6.19889 245.475 5.93229 245.475 5.62695C245.475 5.33529 245.538 5.05957 245.666 4.7998C245.798 4.54004 245.983 4.3099 246.22 4.10938C246.461 3.90885 246.751 3.75163 247.088 3.6377C247.425 3.52376 247.801 3.4668 248.216 3.4668C248.808 3.4668 249.314 3.57161 249.733 3.78125C250.153 3.99089 250.474 4.27116 250.697 4.62207C250.921 4.96842 251.032 5.35352 251.032 5.77734H249.768C249.768 5.57227 249.706 5.37402 249.583 5.18262C249.465 4.98665 249.289 4.82487 249.057 4.69727C248.829 4.56966 248.549 4.50586 248.216 4.50586C247.865 4.50586 247.58 4.56055 247.361 4.66992C247.147 4.77474 246.99 4.90918 246.89 5.07324C246.794 5.2373 246.746 5.41048 246.746 5.59277C246.746 5.72949 246.769 5.85254 246.815 5.96191C246.865 6.06673 246.951 6.16471 247.074 6.25586C247.197 6.34245 247.371 6.42448 247.594 6.50195C247.817 6.57943 248.102 6.6569 248.448 6.73438C249.054 6.87109 249.553 7.03516 249.945 7.22656C250.337 7.41797 250.629 7.65267 250.82 7.93066C251.012 8.20866 251.107 8.5459 251.107 8.94238C251.107 9.26595 251.039 9.56217 250.902 9.83105C250.77 10.0999 250.577 10.3324 250.321 10.5283C250.071 10.7197 249.77 10.8701 249.419 10.9795C249.073 11.0843 248.683 11.1367 248.25 11.1367C247.598 11.1367 247.047 11.0205 246.596 10.7881C246.145 10.5557 245.803 10.2549 245.57 9.88574C245.338 9.5166 245.222 9.12695 245.222 8.7168H246.493C246.511 9.06315 246.612 9.33887 246.794 9.54395C246.976 9.74447 247.2 9.88802 247.464 9.97461C247.728 10.0566 247.99 10.0977 248.25 10.0977C248.596 10.0977 248.886 10.0521 249.118 9.96094C249.355 9.86979 249.535 9.74447 249.658 9.58496C249.781 9.42546 249.843 9.24316 249.843 9.03809ZM261.163 9.73535V5.92773C261.163 5.63607 261.103 5.38314 260.985 5.16895C260.871 4.9502 260.698 4.78158 260.465 4.66309C260.233 4.5446 259.946 4.48535 259.604 4.48535C259.285 4.48535 259.005 4.54004 258.763 4.64941C258.526 4.75879 258.339 4.90234 258.203 5.08008C258.07 5.25781 258.004 5.44922 258.004 5.6543H256.74C256.74 5.38997 256.808 5.12793 256.945 4.86816C257.082 4.6084 257.278 4.3737 257.533 4.16406C257.792 3.94987 258.102 3.78125 258.462 3.6582C258.827 3.5306 259.233 3.4668 259.679 3.4668C260.217 3.4668 260.691 3.55794 261.101 3.74023C261.516 3.92253 261.839 4.19824 262.072 4.56738C262.309 4.93197 262.427 5.38997 262.427 5.94141V9.38672C262.427 9.63281 262.448 9.89486 262.489 10.1729C262.534 10.4508 262.6 10.6901 262.687 10.8906V11H261.368C261.304 10.8542 261.254 10.6605 261.217 10.4189C261.181 10.1729 261.163 9.94499 261.163 9.73535ZM261.381 6.51562L261.395 7.4043H260.117C259.757 7.4043 259.435 7.43392 259.153 7.49316C258.87 7.54785 258.633 7.63216 258.442 7.74609C258.251 7.86003 258.105 8.00358 258.004 8.17676C257.904 8.34538 257.854 8.54362 257.854 8.77148C257.854 9.00391 257.906 9.21582 258.011 9.40723C258.116 9.59863 258.273 9.7513 258.483 9.86523C258.697 9.97461 258.959 10.0293 259.269 10.0293C259.656 10.0293 259.998 9.94727 260.294 9.7832C260.591 9.61914 260.825 9.41862 260.999 9.18164C261.176 8.94466 261.272 8.71452 261.286 8.49121L261.826 9.09961C261.794 9.29102 261.707 9.50293 261.566 9.73535C261.425 9.96777 261.236 10.1911 260.999 10.4053C260.766 10.6149 260.488 10.7904 260.165 10.9316C259.846 11.0684 259.486 11.1367 259.084 11.1367C258.583 11.1367 258.143 11.0387 257.765 10.8428C257.391 10.6468 257.1 10.3848 256.89 10.0566C256.685 9.72396 256.583 9.35254 256.583 8.94238C256.583 8.5459 256.66 8.19727 256.815 7.89648C256.97 7.59115 257.193 7.33822 257.485 7.1377C257.777 6.93262 258.127 6.77767 258.538 6.67285C258.948 6.56803 259.406 6.51562 259.912 6.51562H261.381ZM265.961 5.18262V11H264.697V3.60352H265.893L265.961 5.18262ZM265.66 7.02148L265.134 7.00098C265.139 6.49512 265.214 6.02799 265.36 5.59961C265.505 5.16667 265.711 4.79069 265.975 4.47168C266.239 4.15267 266.554 3.90658 266.918 3.7334C267.287 3.55566 267.695 3.4668 268.142 3.4668C268.506 3.4668 268.835 3.51693 269.126 3.61719C269.418 3.71289 269.666 3.86784 269.871 4.08203C270.081 4.29622 270.24 4.57422 270.35 4.91602C270.459 5.25326 270.514 5.66569 270.514 6.15332V11H269.242V6.13965C269.242 5.75228 269.185 5.44238 269.072 5.20996C268.958 4.97298 268.791 4.80208 268.573 4.69727C268.354 4.58789 268.085 4.5332 267.766 4.5332C267.451 4.5332 267.164 4.59928 266.905 4.73145C266.649 4.86361 266.428 5.0459 266.241 5.27832C266.059 5.51074 265.916 5.77734 265.811 6.07812C265.711 6.37435 265.66 6.6888 265.66 7.02148ZM277.377 9.56445V0.5H278.648V11H277.486L277.377 9.56445ZM272.4 7.38379V7.24023C272.4 6.67513 272.469 6.16243 272.605 5.70215C272.747 5.2373 272.945 4.83854 273.2 4.50586C273.46 4.17318 273.768 3.91797 274.123 3.74023C274.483 3.55794 274.884 3.4668 275.326 3.4668C275.791 3.4668 276.197 3.54883 276.543 3.71289C276.894 3.8724 277.19 4.1071 277.432 4.41699C277.678 4.72233 277.871 5.09147 278.013 5.52441C278.154 5.95736 278.252 6.44727 278.307 6.99414V7.62305C278.256 8.16536 278.158 8.65299 278.013 9.08594C277.871 9.51888 277.678 9.88802 277.432 10.1934C277.19 10.4987 276.894 10.7334 276.543 10.8975C276.192 11.057 275.782 11.1367 275.312 11.1367C274.88 11.1367 274.483 11.0433 274.123 10.8564C273.768 10.6696 273.46 10.4076 273.2 10.0703C272.945 9.73307 272.747 9.33659 272.605 8.88086C272.469 8.42057 272.4 7.92155 272.4 7.38379ZM273.672 7.24023V7.38379C273.672 7.75293 273.708 8.09928 273.781 8.42285C273.859 8.74642 273.977 9.03125 274.137 9.27734C274.296 9.52344 274.499 9.71712 274.745 9.8584C274.991 9.99512 275.285 10.0635 275.627 10.0635C276.046 10.0635 276.39 9.97461 276.659 9.79688C276.933 9.61914 277.151 9.38444 277.315 9.09277C277.479 8.80111 277.607 8.48438 277.698 8.14258V6.49512C277.644 6.24447 277.564 6.00293 277.459 5.77051C277.359 5.53353 277.227 5.32389 277.062 5.1416C276.903 4.95475 276.705 4.80664 276.468 4.69727C276.235 4.58789 275.96 4.5332 275.641 4.5332C275.294 4.5332 274.996 4.60612 274.745 4.75195C274.499 4.89323 274.296 5.08919 274.137 5.33984C273.977 5.58594 273.859 5.87305 273.781 6.20117C273.708 6.52474 273.672 6.87109 273.672 7.24023ZM287.61 10.0977C287.911 10.0977 288.189 10.0361 288.444 9.91309C288.699 9.79004 288.909 9.62142 289.073 9.40723C289.237 9.18848 289.33 8.9401 289.353 8.66211H290.556C290.533 9.09961 290.385 9.50749 290.112 9.88574C289.843 10.2594 289.49 10.5625 289.052 10.7949C288.615 11.0228 288.134 11.1367 287.61 11.1367C287.054 11.1367 286.568 11.0387 286.154 10.8428C285.744 10.6468 285.402 10.3779 285.128 10.0361C284.859 9.69434 284.657 9.30241 284.52 8.86035C284.388 8.41374 284.322 7.94206 284.322 7.44531V7.1582C284.322 6.66146 284.388 6.19206 284.52 5.75C284.657 5.30339 284.859 4.90918 285.128 4.56738C285.402 4.22559 285.744 3.95671 286.154 3.76074C286.568 3.56478 287.054 3.4668 287.61 3.4668C288.189 3.4668 288.694 3.58529 289.127 3.82227C289.56 4.05469 289.9 4.3737 290.146 4.7793C290.397 5.18034 290.533 5.63607 290.556 6.14648H289.353C289.33 5.84115 289.244 5.56543 289.093 5.31934C288.947 5.07324 288.747 4.87728 288.492 4.73145C288.241 4.58105 287.947 4.50586 287.61 4.50586C287.222 4.50586 286.897 4.58333 286.632 4.73828C286.372 4.88867 286.165 5.09375 286.01 5.35352C285.86 5.60872 285.75 5.89355 285.682 6.20801C285.618 6.5179 285.586 6.83464 285.586 7.1582V7.44531C285.586 7.76888 285.618 8.08789 285.682 8.40234C285.746 8.7168 285.853 9.00163 286.003 9.25684C286.158 9.51204 286.366 9.71712 286.625 9.87207C286.89 10.0225 287.218 10.0977 287.61 10.0977ZM291.923 7.38379V7.22656C291.923 6.69336 292 6.19889 292.155 5.74316C292.31 5.28288 292.534 4.88411 292.825 4.54688C293.117 4.20508 293.47 3.94076 293.885 3.75391C294.3 3.5625 294.764 3.4668 295.279 3.4668C295.799 3.4668 296.266 3.5625 296.681 3.75391C297.1 3.94076 297.456 4.20508 297.747 4.54688C298.043 4.88411 298.269 5.28288 298.424 5.74316C298.579 6.19889 298.656 6.69336 298.656 7.22656V7.38379C298.656 7.91699 298.579 8.41146 298.424 8.86719C298.269 9.32292 298.043 9.72168 297.747 10.0635C297.456 10.4007 297.102 10.665 296.688 10.8564C296.277 11.0433 295.813 11.1367 295.293 11.1367C294.774 11.1367 294.306 11.0433 293.892 10.8564C293.477 10.665 293.122 10.4007 292.825 10.0635C292.534 9.72168 292.31 9.32292 292.155 8.86719C292 8.41146 291.923 7.91699 291.923 7.38379ZM293.188 7.22656V7.38379C293.188 7.75293 293.231 8.10156 293.318 8.42969C293.404 8.75326 293.534 9.04036 293.707 9.29102C293.885 9.54167 294.106 9.73991 294.37 9.88574C294.635 10.027 294.942 10.0977 295.293 10.0977C295.639 10.0977 295.943 10.027 296.202 9.88574C296.467 9.73991 296.685 9.54167 296.859 9.29102C297.032 9.04036 297.162 8.75326 297.248 8.42969C297.339 8.10156 297.385 7.75293 297.385 7.38379V7.22656C297.385 6.86198 297.339 6.5179 297.248 6.19434C297.162 5.86621 297.029 5.57682 296.852 5.32617C296.679 5.07096 296.46 4.87044 296.195 4.72461C295.936 4.57878 295.63 4.50586 295.279 4.50586C294.933 4.50586 294.628 4.57878 294.363 4.72461C294.104 4.87044 293.885 5.07096 293.707 5.32617C293.534 5.57682 293.404 5.86621 293.318 6.19434C293.231 6.5179 293.188 6.86198 293.188 7.22656ZM301.787 5.18262V11H300.522V3.60352H301.719L301.787 5.18262ZM301.486 7.02148L300.96 7.00098C300.964 6.49512 301.04 6.02799 301.185 5.59961C301.331 5.16667 301.536 4.79069 301.801 4.47168C302.065 4.15267 302.379 3.90658 302.744 3.7334C303.113 3.55566 303.521 3.4668 303.968 3.4668C304.332 3.4668 304.66 3.51693 304.952 3.61719C305.244 3.71289 305.492 3.86784 305.697 4.08203C305.907 4.29622 306.066 4.57422 306.176 4.91602C306.285 5.25326 306.34 5.66569 306.34 6.15332V11H305.068V6.13965C305.068 5.75228 305.011 5.44238 304.897 5.20996C304.783 4.97298 304.617 4.80208 304.398 4.69727C304.18 4.58789 303.911 4.5332 303.592 4.5332C303.277 4.5332 302.99 4.59928 302.73 4.73145C302.475 4.86361 302.254 5.0459 302.067 5.27832C301.885 5.51074 301.741 5.77734 301.637 6.07812C301.536 6.37435 301.486 6.6888 301.486 7.02148ZM313.203 9.56445V0.5H314.474V11H313.312L313.203 9.56445ZM308.226 7.38379V7.24023C308.226 6.67513 308.294 6.16243 308.431 5.70215C308.572 5.2373 308.771 4.83854 309.026 4.50586C309.286 4.17318 309.593 3.91797 309.949 3.74023C310.309 3.55794 310.71 3.4668 311.152 3.4668C311.617 3.4668 312.022 3.54883 312.369 3.71289C312.72 3.8724 313.016 4.1071 313.257 4.41699C313.503 4.72233 313.697 5.09147 313.838 5.52441C313.98 5.95736 314.078 6.44727 314.132 6.99414V7.62305C314.082 8.16536 313.984 8.65299 313.838 9.08594C313.697 9.51888 313.503 9.88802 313.257 10.1934C313.016 10.4987 312.72 10.7334 312.369 10.8975C312.018 11.057 311.608 11.1367 311.138 11.1367C310.705 11.1367 310.309 11.0433 309.949 10.8564C309.593 10.6696 309.286 10.4076 309.026 10.0703C308.771 9.73307 308.572 9.33659 308.431 8.88086C308.294 8.42057 308.226 7.92155 308.226 7.38379ZM309.498 7.24023V7.38379C309.498 7.75293 309.534 8.09928 309.607 8.42285C309.684 8.74642 309.803 9.03125 309.962 9.27734C310.122 9.52344 310.325 9.71712 310.571 9.8584C310.817 9.99512 311.111 10.0635 311.453 10.0635C311.872 10.0635 312.216 9.97461 312.485 9.79688C312.758 9.61914 312.977 9.38444 313.141 9.09277C313.305 8.80111 313.433 8.48438 313.524 8.14258V6.49512C313.469 6.24447 313.39 6.00293 313.285 5.77051C313.184 5.53353 313.052 5.32389 312.888 5.1416C312.729 4.95475 312.53 4.80664 312.294 4.69727C312.061 4.58789 311.785 4.5332 311.466 4.5332C311.12 4.5332 310.822 4.60612 310.571 4.75195C310.325 4.89323 310.122 5.08919 309.962 5.33984C309.803 5.58594 309.684 5.87305 309.607 6.20117C309.534 6.52474 309.498 6.87109 309.498 7.24023ZM318.097 3.60352V11H316.825V3.60352H318.097ZM316.73 1.6416C316.73 1.43652 316.791 1.26335 316.914 1.12207C317.042 0.980794 317.229 0.910156 317.475 0.910156C317.716 0.910156 317.901 0.980794 318.029 1.12207C318.161 1.26335 318.227 1.43652 318.227 1.6416C318.227 1.83757 318.161 2.00618 318.029 2.14746C317.901 2.28418 317.716 2.35254 317.475 2.35254C317.229 2.35254 317.042 2.28418 316.914 2.14746C316.791 2.00618 316.73 1.83757 316.73 1.6416ZM323.504 3.60352V4.57422H319.505V3.60352H323.504ZM320.858 1.80566H322.123V9.16797C322.123 9.41862 322.162 9.60775 322.239 9.73535C322.317 9.86296 322.417 9.94727 322.54 9.98828C322.663 10.0293 322.795 10.0498 322.937 10.0498C323.041 10.0498 323.151 10.0407 323.265 10.0225C323.383 9.99967 323.472 9.98145 323.531 9.96777L323.538 11C323.438 11.0319 323.306 11.0615 323.142 11.0889C322.982 11.1208 322.788 11.1367 322.561 11.1367C322.251 11.1367 321.966 11.0752 321.706 10.9521C321.446 10.8291 321.239 10.624 321.084 10.3369C320.934 10.0452 320.858 9.65332 320.858 9.16113V1.80566ZM326.641 3.60352V11H325.37V3.60352H326.641ZM325.274 1.6416C325.274 1.43652 325.336 1.26335 325.459 1.12207C325.586 0.980794 325.773 0.910156 326.019 0.910156C326.261 0.910156 326.445 0.980794 326.573 1.12207C326.705 1.26335 326.771 1.43652 326.771 1.6416C326.771 1.83757 326.705 2.00618 326.573 2.14746C326.445 2.28418 326.261 2.35254 326.019 2.35254C325.773 2.35254 325.586 2.28418 325.459 2.14746C325.336 2.00618 325.274 1.83757 325.274 1.6416ZM328.617 7.38379V7.22656C328.617 6.69336 328.694 6.19889 328.849 5.74316C329.004 5.28288 329.227 4.88411 329.519 4.54688C329.811 4.20508 330.164 3.94076 330.579 3.75391C330.993 3.5625 331.458 3.4668 331.973 3.4668C332.493 3.4668 332.96 3.5625 333.374 3.75391C333.794 3.94076 334.149 4.20508 334.441 4.54688C334.737 4.88411 334.963 5.28288 335.118 5.74316C335.273 6.19889 335.35 6.69336 335.35 7.22656V7.38379C335.35 7.91699 335.273 8.41146 335.118 8.86719C334.963 9.32292 334.737 9.72168 334.441 10.0635C334.149 10.4007 333.796 10.665 333.381 10.8564C332.971 11.0433 332.506 11.1367 331.987 11.1367C331.467 11.1367 331 11.0433 330.585 10.8564C330.171 10.665 329.815 10.4007 329.519 10.0635C329.227 9.72168 329.004 9.32292 328.849 8.86719C328.694 8.41146 328.617 7.91699 328.617 7.38379ZM329.881 7.22656V7.38379C329.881 7.75293 329.925 8.10156 330.011 8.42969C330.098 8.75326 330.228 9.04036 330.401 9.29102C330.579 9.54167 330.8 9.73991 331.064 9.88574C331.328 10.027 331.636 10.0977 331.987 10.0977C332.333 10.0977 332.636 10.027 332.896 9.88574C333.16 9.73991 333.379 9.54167 333.552 9.29102C333.725 9.04036 333.855 8.75326 333.942 8.42969C334.033 8.10156 334.079 7.75293 334.079 7.38379V7.22656C334.079 6.86198 334.033 6.5179 333.942 6.19434C333.855 5.86621 333.723 5.57682 333.545 5.32617C333.372 5.07096 333.153 4.87044 332.889 4.72461C332.629 4.57878 332.324 4.50586 331.973 4.50586C331.627 4.50586 331.321 4.57878 331.057 4.72461C330.797 4.87044 330.579 5.07096 330.401 5.32617C330.228 5.57682 330.098 5.86621 330.011 6.19434C329.925 6.5179 329.881 6.86198 329.881 7.22656ZM338.481 5.18262V11H337.216V3.60352H338.412L338.481 5.18262ZM338.18 7.02148L337.653 7.00098C337.658 6.49512 337.733 6.02799 337.879 5.59961C338.025 5.16667 338.23 4.79069 338.494 4.47168C338.759 4.15267 339.073 3.90658 339.438 3.7334C339.807 3.55566 340.215 3.4668 340.661 3.4668C341.026 3.4668 341.354 3.51693 341.646 3.61719C341.937 3.71289 342.186 3.86784 342.391 4.08203C342.6 4.29622 342.76 4.57422 342.869 4.91602C342.979 5.25326 343.033 5.66569 343.033 6.15332V11H341.762V6.13965C341.762 5.75228 341.705 5.44238 341.591 5.20996C341.477 4.97298 341.311 4.80208 341.092 4.69727C340.873 4.58789 340.604 4.5332 340.285 4.5332C339.971 4.5332 339.684 4.59928 339.424 4.73145C339.169 4.86361 338.948 5.0459 338.761 5.27832C338.579 5.51074 338.435 5.77734 338.33 6.07812C338.23 6.37435 338.18 6.6888 338.18 7.02148ZM349.541 9.03809C349.541 8.85579 349.5 8.68717 349.418 8.53223C349.34 8.37272 349.179 8.22917 348.932 8.10156C348.691 7.9694 348.326 7.85547 347.839 7.75977C347.429 7.67318 347.057 7.57064 346.724 7.45215C346.396 7.33366 346.116 7.1901 345.884 7.02148C345.656 6.85286 345.48 6.65462 345.357 6.42676C345.234 6.19889 345.173 5.93229 345.173 5.62695C345.173 5.33529 345.237 5.05957 345.364 4.7998C345.496 4.54004 345.681 4.3099 345.918 4.10938C346.159 3.90885 346.449 3.75163 346.786 3.6377C347.123 3.52376 347.499 3.4668 347.914 3.4668C348.506 3.4668 349.012 3.57161 349.432 3.78125C349.851 3.99089 350.172 4.27116 350.395 4.62207C350.619 4.96842 350.73 5.35352 350.73 5.77734H349.466C349.466 5.57227 349.404 5.37402 349.281 5.18262C349.163 4.98665 348.987 4.82487 348.755 4.69727C348.527 4.56966 348.247 4.50586 347.914 4.50586C347.563 4.50586 347.278 4.56055 347.059 4.66992C346.845 4.77474 346.688 4.90918 346.588 5.07324C346.492 5.2373 346.444 5.41048 346.444 5.59277C346.444 5.72949 346.467 5.85254 346.513 5.96191C346.563 6.06673 346.649 6.16471 346.772 6.25586C346.895 6.34245 347.069 6.42448 347.292 6.50195C347.515 6.57943 347.8 6.6569 348.146 6.73438C348.752 6.87109 349.252 7.03516 349.643 7.22656C350.035 7.41797 350.327 7.65267 350.518 7.93066C350.71 8.20866 350.806 8.5459 350.806 8.94238C350.806 9.26595 350.737 9.56217 350.6 9.83105C350.468 10.0999 350.275 10.3324 350.019 10.5283C349.769 10.7197 349.468 10.8701 349.117 10.9795C348.771 11.0843 348.381 11.1367 347.948 11.1367C347.296 11.1367 346.745 11.0205 346.294 10.7881C345.843 10.5557 345.501 10.2549 345.268 9.88574C345.036 9.5166 344.92 9.12695 344.92 8.7168H346.191C346.21 9.06315 346.31 9.33887 346.492 9.54395C346.674 9.74447 346.898 9.88802 347.162 9.97461C347.426 10.0566 347.688 10.0977 347.948 10.0977C348.294 10.0977 348.584 10.0521 348.816 9.96094C349.053 9.86979 349.233 9.74447 349.356 9.58496C349.479 9.42546 349.541 9.24316 349.541 9.03809ZM360.861 9.73535V5.92773C360.861 5.63607 360.801 5.38314 360.683 5.16895C360.569 4.9502 360.396 4.78158 360.163 4.66309C359.931 4.5446 359.644 4.48535 359.302 4.48535C358.983 4.48535 358.703 4.54004 358.461 4.64941C358.224 4.75879 358.037 4.90234 357.901 5.08008C357.769 5.25781 357.702 5.44922 357.702 5.6543H356.438C356.438 5.38997 356.506 5.12793 356.643 4.86816C356.78 4.6084 356.976 4.3737 357.231 4.16406C357.491 3.94987 357.8 3.78125 358.16 3.6582C358.525 3.5306 358.931 3.4668 359.377 3.4668C359.915 3.4668 360.389 3.55794 360.799 3.74023C361.214 3.92253 361.537 4.19824 361.77 4.56738C362.007 4.93197 362.125 5.38997 362.125 5.94141V9.38672C362.125 9.63281 362.146 9.89486 362.187 10.1729C362.232 10.4508 362.298 10.6901 362.385 10.8906V11H361.066C361.002 10.8542 360.952 10.6605 360.915 10.4189C360.879 10.1729 360.861 9.94499 360.861 9.73535ZM361.079 6.51562L361.093 7.4043H359.815C359.455 7.4043 359.133 7.43392 358.851 7.49316C358.568 7.54785 358.331 7.63216 358.14 7.74609C357.949 7.86003 357.803 8.00358 357.702 8.17676C357.602 8.34538 357.552 8.54362 357.552 8.77148C357.552 9.00391 357.604 9.21582 357.709 9.40723C357.814 9.59863 357.971 9.7513 358.181 9.86523C358.395 9.97461 358.657 10.0293 358.967 10.0293C359.354 10.0293 359.696 9.94727 359.992 9.7832C360.289 9.61914 360.523 9.41862 360.697 9.18164C360.874 8.94466 360.97 8.71452 360.984 8.49121L361.524 9.09961C361.492 9.29102 361.405 9.50293 361.264 9.73535C361.123 9.96777 360.934 10.1911 360.697 10.4053C360.464 10.6149 360.186 10.7904 359.863 10.9316C359.544 11.0684 359.184 11.1367 358.783 11.1367C358.281 11.1367 357.841 11.0387 357.463 10.8428C357.089 10.6468 356.798 10.3848 356.588 10.0566C356.383 9.72396 356.281 9.35254 356.281 8.94238C356.281 8.5459 356.358 8.19727 356.513 7.89648C356.668 7.59115 356.891 7.33822 357.183 7.1377C357.475 6.93262 357.826 6.77767 358.236 6.67285C358.646 6.56803 359.104 6.51562 359.61 6.51562H361.079ZM365.659 5.02539V13.8438H364.388V3.60352H365.55L365.659 5.02539ZM370.643 7.24023V7.38379C370.643 7.92155 370.579 8.42057 370.451 8.88086C370.324 9.33659 370.137 9.73307 369.891 10.0703C369.649 10.4076 369.351 10.6696 368.995 10.8564C368.64 11.0433 368.232 11.1367 367.772 11.1367C367.302 11.1367 366.887 11.0592 366.527 10.9043C366.167 10.7493 365.862 10.5238 365.611 10.2275C365.361 9.93132 365.16 9.57585 365.01 9.16113C364.864 8.74642 364.764 8.2793 364.709 7.75977V6.99414C364.764 6.44727 364.866 5.95736 365.017 5.52441C365.167 5.09147 365.365 4.72233 365.611 4.41699C365.862 4.1071 366.165 3.8724 366.521 3.71289C366.876 3.54883 367.286 3.4668 367.751 3.4668C368.216 3.4668 368.628 3.55794 368.988 3.74023C369.348 3.91797 369.651 4.17318 369.897 4.50586C370.144 4.83854 370.328 5.2373 370.451 5.70215C370.579 6.16243 370.643 6.67513 370.643 7.24023ZM369.371 7.38379V7.24023C369.371 6.87109 369.332 6.52474 369.255 6.20117C369.177 5.87305 369.057 5.58594 368.893 5.33984C368.733 5.08919 368.528 4.89323 368.277 4.75195C368.027 4.60612 367.728 4.5332 367.382 4.5332C367.063 4.5332 366.785 4.58789 366.548 4.69727C366.315 4.80664 366.117 4.95475 365.953 5.1416C365.789 5.32389 365.655 5.53353 365.55 5.77051C365.45 6.00293 365.374 6.24447 365.324 6.49512V8.26562C365.415 8.58464 365.543 8.88542 365.707 9.16797C365.871 9.44596 366.09 9.67155 366.363 9.84473C366.637 10.0133 366.981 10.0977 367.396 10.0977C367.737 10.0977 368.031 10.027 368.277 9.88574C368.528 9.73991 368.733 9.54167 368.893 9.29102C369.057 9.04036 369.177 8.75326 369.255 8.42969C369.332 8.10156 369.371 7.75293 369.371 7.38379ZM373.801 5.02539V13.8438H372.529V3.60352H373.691L373.801 5.02539ZM378.784 7.24023V7.38379C378.784 7.92155 378.72 8.42057 378.593 8.88086C378.465 9.33659 378.278 9.73307 378.032 10.0703C377.79 10.4076 377.492 10.6696 377.136 10.8564C376.781 11.0433 376.373 11.1367 375.913 11.1367C375.443 11.1367 375.029 11.0592 374.669 10.9043C374.309 10.7493 374.003 10.5238 373.753 10.2275C373.502 9.93132 373.302 9.57585 373.151 9.16113C373.005 8.74642 372.905 8.2793 372.85 7.75977V6.99414C372.905 6.44727 373.008 5.95736 373.158 5.52441C373.308 5.09147 373.507 4.72233 373.753 4.41699C374.003 4.1071 374.306 3.8724 374.662 3.71289C375.017 3.54883 375.427 3.4668 375.892 3.4668C376.357 3.4668 376.77 3.55794 377.13 3.74023C377.49 3.91797 377.793 4.17318 378.039 4.50586C378.285 4.83854 378.469 5.2373 378.593 5.70215C378.72 6.16243 378.784 6.67513 378.784 7.24023ZM377.512 7.38379V7.24023C377.512 6.87109 377.474 6.52474 377.396 6.20117C377.319 5.87305 377.198 5.58594 377.034 5.33984C376.874 5.08919 376.669 4.89323 376.419 4.75195C376.168 4.60612 375.87 4.5332 375.523 4.5332C375.204 4.5332 374.926 4.58789 374.689 4.69727C374.457 4.80664 374.259 4.95475 374.094 5.1416C373.93 5.32389 373.796 5.53353 373.691 5.77051C373.591 6.00293 373.516 6.24447 373.466 6.49512V8.26562C373.557 8.58464 373.684 8.88542 373.848 9.16797C374.012 9.44596 374.231 9.67155 374.505 9.84473C374.778 10.0133 375.122 10.0977 375.537 10.0977C375.879 10.0977 376.173 10.027 376.419 9.88574C376.669 9.73991 376.874 9.54167 377.034 9.29102C377.198 9.04036 377.319 8.75326 377.396 8.42969C377.474 8.10156 377.512 7.75293 377.512 7.38379ZM382.051 0.5V11H380.78V0.5H382.051ZM386.44 10.2344L388.497 3.60352H389.851L386.884 12.1416C386.816 12.3239 386.724 12.5199 386.611 12.7295C386.501 12.9437 386.36 13.1465 386.187 13.3379C386.014 13.5293 385.804 13.6842 385.558 13.8027C385.316 13.9258 385.027 13.9873 384.69 13.9873C384.589 13.9873 384.462 13.9736 384.307 13.9463C384.152 13.9189 384.043 13.8962 383.979 13.8779L383.972 12.8525C384.008 12.8571 384.065 12.8617 384.143 12.8662C384.225 12.8753 384.282 12.8799 384.314 12.8799C384.601 12.8799 384.845 12.8411 385.045 12.7637C385.246 12.6908 385.414 12.5654 385.551 12.3877C385.692 12.2145 385.813 11.9753 385.913 11.6699L386.44 10.2344ZM384.929 3.60352L386.85 9.3457L387.178 10.6787L386.269 11.1436L383.548 3.60352H384.929ZM392.776 1.04688L392.687 8.19043H391.546L391.45 1.04688H392.776ZM391.409 10.3643C391.409 10.1592 391.471 9.986 391.594 9.84473C391.721 9.70345 391.908 9.63281 392.154 9.63281C392.396 9.63281 392.58 9.70345 392.708 9.84473C392.84 9.986 392.906 10.1592 392.906 10.3643C392.906 10.5602 392.84 10.7288 392.708 10.8701C392.58 11.0114 392.396 11.082 392.154 11.082C391.908 11.082 391.721 11.0114 391.594 10.8701C391.471 10.7288 391.409 10.5602 391.409 10.3643Z" fill="#011632"/>
</svg>
