<svg width="26" height="22" viewBox="0 0 26 22" fill="none" xmlns="http://www.w3.org/2000/svg">
<path d="M1.5625 2.25V0.6875C0.7 0.6875 0 1.3875 0 2.25H1.5625ZM24.0625 2.25H25.625C25.625 1.3875 24.925 0.6875 24.0625 0.6875V2.25ZM1.5625 3.8125H24.0625V0.6875H1.5625V3.8125ZM22.5 2.25V17.25H25.625V2.25H22.5ZM21.5625 18.1875H4.0625V21.3125H21.5625V18.1875ZM3.125 17.25V2.25H0V17.25H3.125ZM4.0625 18.1875C3.81386 18.1875 3.5754 18.0887 3.39959 17.9129C3.22377 17.7371 3.125 17.4986 3.125 17.25H0C0 18.3274 0.428012 19.3608 1.18988 20.1226C1.95175 20.8845 2.98506 21.3125 4.0625 21.3125V18.1875ZM22.5 17.25C22.5 17.4986 22.4012 17.7371 22.2254 17.9129C22.0496 18.0887 21.8111 18.1875 21.5625 18.1875V21.3125C22.6399 21.3125 23.6733 20.8845 24.4351 20.1226C25.197 19.3608 25.625 18.3274 25.625 17.25H22.5Z" fill="#74BCEE"/>
<path d="M1.5625 2.25L12.8125 13.5L24.0625 2.25" fill="#74BCEE"/>
<path d="M1.5625 2.25L12.8125 13.5L24.0625 2.25" stroke="#74BCEE" stroke-width="3.125" stroke-linecap="round" stroke-linejoin="round"/>
</svg>
