<svg width="31" height="21" viewBox="0 0 31 21" fill="none" xmlns="http://www.w3.org/2000/svg">
<path d="M30.5 10.5C30.5 10.5 24.875 0.1875 15.5 0.1875C6.125 0.1875 0.5 10.5 0.5 10.5C0.5 10.5 6.125 20.8125 15.5 20.8125C24.875 20.8125 30.5 10.5 30.5 10.5ZM2.69937 10.5C3.60596 9.12211 4.6487 7.83879 5.81187 6.66937C8.225 4.2525 11.525 2.0625 15.5 2.0625C19.475 2.0625 22.7731 4.2525 25.19 6.66937C26.3532 7.83879 27.3959 9.12211 28.3025 10.5C28.1938 10.6631 28.0738 10.8431 27.9369 11.04C27.3088 11.94 26.3806 13.14 25.19 14.3306C22.7731 16.7475 19.4731 18.9375 15.5 18.9375C11.525 18.9375 8.22688 16.7475 5.81 14.3306C4.64684 13.1612 3.60598 11.8779 2.69937 10.5Z" fill="#545454"/>
<path d="M15.5 5.8125C14.2568 5.8125 13.0645 6.30636 12.1854 7.18544C11.3064 8.06451 10.8125 9.2568 10.8125 10.5C10.8125 11.7432 11.3064 12.9355 12.1854 13.8146C13.0645 14.6936 14.2568 15.1875 15.5 15.1875C16.7432 15.1875 17.9355 14.6936 18.8146 13.8146C19.6936 12.9355 20.1875 11.7432 20.1875 10.5C20.1875 9.2568 19.6936 8.06451 18.8146 7.18544C17.9355 6.30636 16.7432 5.8125 15.5 5.8125ZM8.9375 10.5C8.9375 8.75952 9.6289 7.09032 10.8596 5.85961C12.0903 4.6289 13.7595 3.9375 15.5 3.9375C17.2405 3.9375 18.9097 4.6289 20.1404 5.85961C21.3711 7.09032 22.0625 8.75952 22.0625 10.5C22.0625 12.2405 21.3711 13.9097 20.1404 15.1404C18.9097 16.3711 17.2405 17.0625 15.5 17.0625C13.7595 17.0625 12.0903 16.3711 10.8596 15.1404C9.6289 13.9097 8.9375 12.2405 8.9375 10.5Z" fill="#545454"/>
</svg>
