<svg width="25" height="20" viewBox="0 0 25 20" fill="none" xmlns="http://www.w3.org/2000/svg">
<path fill-rule="evenodd" clip-rule="evenodd" d="M0 10C0 12.05 0.53125 12.7387 1.59375 14.12C3.715 16.875 7.2725 20 12.5 20C17.7275 20 21.285 16.875 23.4062 14.12C24.4688 12.74 25 12.0487 25 10C25 7.95 24.4688 7.26125 23.4062 5.88C21.285 3.125 17.7275 0 12.5 0C7.2725 0 3.715 3.125 1.59375 5.88C0.53125 7.2625 0 7.95125 0 10ZM12.5 5.3125C11.2568 5.3125 10.0645 5.80636 9.18544 6.68544C8.30636 7.56451 7.8125 8.7568 7.8125 10C7.8125 11.2432 8.30636 12.4355 9.18544 13.3146C10.0645 14.1936 11.2568 14.6875 12.5 14.6875C13.7432 14.6875 14.9355 14.1936 15.8146 13.3146C16.6936 12.4355 17.1875 11.2432 17.1875 10C17.1875 8.7568 16.6936 7.56451 15.8146 6.68544C14.9355 5.80636 13.7432 5.3125 12.5 5.3125Z" fill="#74BCEE"/>
</svg>
