<svg width="30" height="30" viewBox="0 0 30 30" fill="none" xmlns="http://www.w3.org/2000/svg">
<path d="M12.75 6H17.25C17.25 5.40326 17.0129 4.83097 16.591 4.40901C16.169 3.98705 15.5967 3.75 15 3.75C14.4033 3.75 13.831 3.98705 13.409 4.40901C12.9871 4.83097 12.75 5.40326 12.75 6ZM11.25 6C11.25 5.00544 11.6451 4.05161 12.3483 3.34835C13.0516 2.64509 14.0054 2.25 15 2.25C15.9946 2.25 16.9484 2.64509 17.6517 3.34835C18.3549 4.05161 18.75 5.00544 18.75 6H26.25C26.4489 6 26.6397 6.07902 26.7803 6.21967C26.921 6.36032 27 6.55109 27 6.75C27 6.94891 26.921 7.13968 26.7803 7.28033C26.6397 7.42098 26.4489 7.5 26.25 7.5H24.669L22.878 23.016C22.7514 24.1128 22.226 25.1248 21.4018 25.8594C20.5776 26.594 19.5121 26.9999 18.408 27H11.592C10.4879 26.9999 9.42242 26.594 8.59821 25.8594C7.77399 25.1248 7.2486 24.1128 7.122 23.016L5.331 7.5H3.75C3.55109 7.5 3.36032 7.42098 3.21967 7.28033C3.07902 7.13968 3 6.94891 3 6.75C3 6.55109 3.07902 6.36032 3.21967 6.21967C3.36032 6.07902 3.55109 6 3.75 6H11.25ZM13.5 12C13.5 11.8011 13.421 11.6103 13.2803 11.4697C13.1397 11.329 12.9489 11.25 12.75 11.25C12.5511 11.25 12.3603 11.329 12.2197 11.4697C12.079 11.6103 12 11.8011 12 12V21C12 21.1989 12.079 21.3897 12.2197 21.5303C12.3603 21.671 12.5511 21.75 12.75 21.75C12.9489 21.75 13.1397 21.671 13.2803 21.5303C13.421 21.3897 13.5 21.1989 13.5 21V12ZM17.25 11.25C17.0511 11.25 16.8603 11.329 16.7197 11.4697C16.579 11.6103 16.5 11.8011 16.5 12V21C16.5 21.1989 16.579 21.3897 16.7197 21.5303C16.8603 21.671 17.0511 21.75 17.25 21.75C17.4489 21.75 17.6397 21.671 17.7803 21.5303C17.921 21.3897 18 21.1989 18 21V12C18 11.8011 17.921 11.6103 17.7803 11.4697C17.6397 11.329 17.4489 11.25 17.25 11.25Z" fill="#74BCEE"/>
</svg>
