<svg width="30" height="30" viewBox="0 0 30 30" fill="none" xmlns="http://www.w3.org/2000/svg">
<path d="M3.75 21.5626V26.2501H8.4375L22.2625 12.4251L17.575 7.73763L3.75 21.5626ZM25.8875 8.80013C26.0034 8.68448 26.0953 8.54712 26.158 8.39591C26.2208 8.24469 26.2531 8.08259 26.2531 7.91888C26.2531 7.75517 26.2208 7.59306 26.158 7.44185C26.0953 7.29063 26.0034 7.15327 25.8875 7.03763L22.9625 4.11263C22.8469 3.99675 22.7095 3.90481 22.5583 3.84208C22.4071 3.77936 22.245 3.74707 22.0813 3.74707C21.9175 3.74707 21.7554 3.77936 21.6042 3.84208C21.453 3.90481 21.3156 3.99675 21.2 4.11263L18.9125 6.40013L23.6 11.0876L25.8875 8.80013Z" fill="#74BCEE"/>
</svg>
