<svg width="30" height="30" viewBox="0 0 30 30" fill="none" xmlns="http://www.w3.org/2000/svg">
<path d="M3.75 6.25V4.6875C2.8875 4.6875 2.1875 5.3875 2.1875 6.25H3.75ZM26.25 6.25H27.8125C27.8125 5.3875 27.1125 4.6875 26.25 4.6875V6.25ZM3.75 7.8125H26.25V4.6875H3.75V7.8125ZM24.6875 6.25V21.25H27.8125V6.25H24.6875ZM23.75 22.1875H6.25V25.3125H23.75V22.1875ZM5.3125 21.25V6.25H2.1875V21.25H5.3125ZM6.25 22.1875C6.00136 22.1875 5.7629 22.0887 5.58709 21.9129C5.41127 21.7371 5.3125 21.4986 5.3125 21.25H2.1875C2.1875 22.3274 2.61551 23.3608 3.37738 24.1226C4.13925 24.8845 5.17256 25.3125 6.25 25.3125V22.1875ZM24.6875 21.25C24.6875 21.4986 24.5887 21.7371 24.4129 21.9129C24.2371 22.0887 23.9986 22.1875 23.75 22.1875V25.3125C24.8274 25.3125 25.8608 24.8845 26.6226 24.1226C27.3845 23.3608 27.8125 22.3274 27.8125 21.25H24.6875Z" fill="black"/>
<path d="M3.75 6.25L15 17.5L26.25 6.25" stroke="black" stroke-width="3.125" stroke-linecap="round" stroke-linejoin="round"/>
</svg>
