<svg width="21" height="20" viewBox="0 0 21 20" fill="none" xmlns="http://www.w3.org/2000/svg">
<path d="M9.66536 4.16664H5.4987C5.05667 4.16664 4.63275 4.34223 4.32019 4.65479C4.00763 4.96736 3.83203 5.39128 3.83203 5.83331V15C3.83203 15.442 4.00763 15.8659 4.32019 16.1785C4.63275 16.491 5.05667 16.6666 5.4987 16.6666H14.6654C15.1074 16.6666 15.5313 16.491 15.8439 16.1785C16.1564 15.8659 16.332 15.442 16.332 15V10.8333M15.1537 2.98831C15.3074 2.82912 15.4914 2.70215 15.6947 2.6148C15.898 2.52746 16.1167 2.48148 16.338 2.47956C16.5593 2.47763 16.7788 2.5198 16.9836 2.6036C17.1884 2.6874 17.3745 2.81116 17.531 2.96765C17.6875 3.12414 17.8113 3.31022 17.8951 3.51505C17.9789 3.71988 18.021 3.93934 18.0191 4.16064C18.0172 4.38194 17.9712 4.60064 17.8839 4.80398C17.7965 5.00732 17.6695 5.19123 17.5104 5.34497L10.3554 12.5H7.9987V10.1433L15.1537 2.98831Z" stroke="#2E65F3" stroke-width="1.4" stroke-linecap="round" stroke-linejoin="round"/>
</svg>
