<svg width="63" height="30" viewBox="0 0 63 30" fill="none" xmlns="http://www.w3.org/2000/svg">
<path fill-rule="evenodd" clip-rule="evenodd" d="M11.4609 13.75C11.4609 12.7651 11.6786 11.7898 12.1017 10.8799C12.5248 9.96993 13.1449 9.14314 13.9267 8.4467C14.7084 7.75026 15.6365 7.19781 16.6579 6.8209C17.6793 6.44399 18.774 6.25 19.8796 6.25C20.9851 6.25 22.0799 6.44399 23.1013 6.8209C24.1227 7.19781 25.0508 7.75026 25.8325 8.4467C26.6143 9.14314 27.2344 9.96993 27.6575 10.8799C28.0805 11.7898 28.2983 12.7651 28.2983 13.75C28.2983 15.7391 27.4113 17.6468 25.8325 19.0533C24.2537 20.4598 22.1124 21.25 19.8796 21.25C17.6468 21.25 15.5055 20.4598 13.9267 19.0533C12.3478 17.6468 11.4609 15.7391 11.4609 13.75ZM19.8796 3.75C18.0932 3.75023 16.3327 4.13027 14.7444 4.85855C13.156 5.58683 11.7857 6.6423 10.7474 7.93726C9.709 9.23221 9.03255 10.7292 8.77423 12.3039C8.51591 13.8786 8.68319 15.4855 9.26216 16.991C9.84113 18.4966 10.8151 19.8572 12.103 20.96C13.391 22.0628 14.9558 22.8757 16.6674 23.3314C18.379 23.787 20.1879 23.8722 21.9439 23.5797C23.6998 23.2873 25.3521 22.6257 26.7633 21.65L31.5156 25.8838C31.7803 26.1114 32.1347 26.2374 32.5026 26.2346C32.8705 26.2317 33.2224 26.1003 33.4826 25.8685C33.7427 25.6368 33.8903 25.3232 33.8935 24.9955C33.8967 24.6678 33.7552 24.352 33.4996 24.1162L28.7473 19.8825C30.0355 18.4043 30.8322 16.6338 31.047 14.7722C31.2617 12.9106 30.8858 11.0327 29.9619 9.35206C29.0381 7.67138 27.6034 6.25536 25.8211 5.26503C24.0387 4.2747 21.9802 3.74979 19.8796 3.75ZM19.8796 18.75C21.3681 18.75 22.7957 18.2232 23.8482 17.2855C24.9007 16.3479 25.4921 15.0761 25.4921 13.75C25.4921 12.4239 24.9007 11.1521 23.8482 10.2145C22.7957 9.27678 21.3681 8.75 19.8796 8.75C18.3911 8.75 16.9635 9.27678 15.911 10.2145C14.8584 11.1521 14.2671 12.4239 14.2671 13.75C14.2671 15.0761 14.8584 16.3479 15.911 17.2855C16.9635 18.2232 18.3911 18.75 19.8796 18.75Z" fill="#22ACF1"/>
</svg>
