<svg width="19" height="20" viewBox="0 0 19 20" fill="none" xmlns="http://www.w3.org/2000/svg">
<rect width="19" height="20" fill="#050000"/>
<path fill-rule="evenodd" clip-rule="evenodd" d="M3.95801 2.5H15.0413L6.97901 10.9867C6.84881 10.6355 6.63705 10.3244 6.36309 10.0817C6.18259 9.91667 5.93005 9.7675 5.42655 9.46833L3.12042 8.10167C2.36913 7.6575 1.99388 7.435 1.78884 7.07667C1.58301 6.7175 1.58301 6.28417 1.58301 5.41917V4.84417C1.58301 3.73917 1.58301 3.18583 1.93134 2.8425C2.27809 2.5 2.8378 2.5 3.95801 2.5Z" fill="white"/>
<path opacity="0.5" d="M17.4166 5.42V4.845C17.4166 3.74 17.4166 3.18667 17.0683 2.84333C16.7216 2.5 16.1618 2.5 15.0416 2.5L6.97852 10.9867C7.0181 11.0942 7.04977 11.2058 7.07431 11.3225C7.12497 11.56 7.12497 11.8383 7.12497 12.3942V14.6192C7.12497 15.3767 7.12497 15.7558 7.32447 16.0508C7.52397 16.3467 7.87864 16.4925 8.58639 16.7842C10.0739 17.3958 10.8173 17.7017 11.3461 17.3533C11.875 17.0058 11.875 16.21 11.875 14.6183V12.3933C11.875 11.8383 11.875 11.56 11.9248 11.3225C12.0245 10.8367 12.2752 10.3997 12.6373 10.0808C12.8171 9.91667 13.0688 9.7675 13.5731 9.46833L15.8792 8.10167C16.6297 7.6575 17.0058 7.435 17.2108 7.07667C17.4166 6.71833 17.4166 6.285 17.4166 5.42Z" fill="white"/>
</svg>
