<svg width="30" height="30" viewBox="0 0 30 30" fill="none" xmlns="http://www.w3.org/2000/svg">
<path d="M12.1875 15C12.1875 14.2541 12.4838 13.5387 13.0113 13.0113C13.5387 12.4838 14.2541 12.1875 15 12.1875C15.7459 12.1875 16.4613 12.4838 16.9887 13.0113C17.5162 13.5387 17.8125 14.2541 17.8125 15C17.8125 15.7459 17.5162 16.4613 16.9887 16.9887C16.4613 17.5162 15.7459 17.8125 15 17.8125C14.2541 17.8125 13.5387 17.5162 13.0113 16.9887C12.4838 16.4613 12.1875 15.7459 12.1875 15Z" fill="#120101"/>
<path fill-rule="evenodd" clip-rule="evenodd" d="M2.5 15C2.5 17.05 3.03125 17.7387 4.09375 19.12C6.215 21.875 9.7725 25 15 25C20.2275 25 23.785 21.875 25.9062 19.12C26.9688 17.74 27.5 17.0487 27.5 15C27.5 12.95 26.9688 12.2613 25.9062 10.88C23.785 8.125 20.2275 5 15 5C9.7725 5 6.215 8.125 4.09375 10.88C3.03125 12.2625 2.5 12.9513 2.5 15ZM15 10.3125C13.7568 10.3125 12.5645 10.8064 11.6854 11.6854C10.8064 12.5645 10.3125 13.7568 10.3125 15C10.3125 16.2432 10.8064 17.4355 11.6854 18.3146C12.5645 19.1936 13.7568 19.6875 15 19.6875C16.2432 19.6875 17.4355 19.1936 18.3146 18.3146C19.1936 17.4355 19.6875 16.2432 19.6875 15C19.6875 13.7568 19.1936 12.5645 18.3146 11.6854C17.4355 10.8064 16.2432 10.3125 15 10.3125Z" fill="#120101"/>
</svg>
