<svg width="21" height="20" viewBox="0 0 21 20" fill="none" xmlns="http://www.w3.org/2000/svg">
<path d="M8.83203 9.16667V14.1667M12.1654 9.16667V14.1667M3.83203 5.83333H17.1654M16.332 5.83333L15.6095 15.9517C15.5796 16.3722 15.3914 16.7657 15.083 17.053C14.7745 17.3403 14.3686 17.5 13.947 17.5H7.05036C6.62881 17.5 6.22292 17.3403 5.91444 17.053C5.60595 16.7657 5.41779 16.3722 5.38786 15.9517L4.66536 5.83333H16.332ZM12.9987 5.83333V3.33333C12.9987 3.11232 12.9109 2.90036 12.7546 2.74408C12.5983 2.5878 12.3864 2.5 12.1654 2.5H8.83203C8.61102 2.5 8.39906 2.5878 8.24278 2.74408C8.0865 2.90036 7.9987 3.11232 7.9987 3.33333V5.83333H12.9987Z" stroke="#F32D2D" stroke-width="1.4" stroke-linecap="round" stroke-linejoin="round"/>
</svg>
