<svg width="179" height="179" viewBox="0 0 179 179" fill="none" xmlns="http://www.w3.org/2000/svg">
<g filter="url(#filter0_d_49_366)">
<circle cx="89.5" cy="84.5" r="26.5" fill="#1376F8"/>
</g>
<path d="M98.125 81.25H93.75V76.875C93.749 76.0465 93.4195 75.2522 92.8336 74.6664C92.2478 74.0805 91.4535 73.751 90.625 73.75H81.875C81.0465 73.751 80.2522 74.0805 79.6664 74.6664C79.0805 75.2522 78.751 76.0465 78.75 76.875V82.5C78.7509 83.2201 79.0001 83.9178 79.4555 84.4756C79.9109 85.0334 80.5447 85.4171 81.25 85.5621V87.5323C81.2509 87.7774 81.3261 88.0165 81.4658 88.2179C81.6054 88.4193 81.803 88.5735 82.0322 88.6603C82.1828 88.7198 82.3432 88.7505 82.5052 88.7506C82.6788 88.7507 82.8506 88.7149 83.0097 88.6452C83.1688 88.5755 83.3116 88.4736 83.4293 88.3459L85.9454 85.625H86.25V90C86.251 90.8285 86.5805 91.6228 87.1664 92.2086C87.7522 92.7945 88.5465 93.124 89.375 93.125H94.0521L96.5722 95.8429C96.6902 95.9711 96.8335 96.0734 96.993 96.1433C97.1526 96.2132 97.3249 96.2493 97.4991 96.2491C97.6601 96.2488 97.8196 96.2186 97.9696 96.16C98.1987 96.073 98.3959 95.9184 98.5352 95.7169C98.6746 95.5154 98.7495 95.2763 98.75 95.0313V93.0625C99.4554 92.9175 100.089 92.5337 100.545 91.9758C101 91.418 101.249 90.7201 101.25 90V84.375C101.249 83.5465 100.919 82.7522 100.334 82.1664C99.7478 81.5805 98.9535 81.251 98.125 81.25ZM85.672 84.375C85.5858 84.375 85.5005 84.3928 85.4215 84.4274C85.3425 84.4619 85.2715 84.5125 85.213 84.5758L82.5 87.5324V85C82.5 84.8342 82.4342 84.6753 82.3169 84.5581C82.1997 84.4408 82.0408 84.375 81.875 84.375C81.3779 84.3745 80.9013 84.1767 80.5498 83.8252C80.1983 83.4737 80.0005 82.9971 80 82.5V76.875C80.0005 76.3779 80.1983 75.9013 80.5498 75.5498C80.9013 75.1983 81.3779 75.0005 81.875 75H90.625C91.1221 75.0005 91.5987 75.1983 91.9502 75.5498C92.3017 75.9013 92.4995 76.3779 92.5 76.875V82.5C92.4995 82.9971 92.3017 83.4737 91.9502 83.8252C91.5987 84.1767 91.1221 84.3745 90.625 84.375H85.672ZM100 90C99.9995 90.4971 99.8017 90.9737 99.4502 91.3252C99.0987 91.6767 98.6221 91.8745 98.125 91.875C97.9592 91.875 97.8003 91.9408 97.6831 92.0581C97.5658 92.1753 97.5 92.3342 97.5 92.5L97.4896 94.9938L94.7834 92.075C94.7248 92.0119 94.6539 91.9616 94.575 91.9272C94.4962 91.8928 94.4111 91.875 94.325 91.875H89.375C88.8779 91.8745 88.4013 91.6767 88.0498 91.3252C87.6983 90.9737 87.5005 90.4971 87.5 90V85.625H90.625C91.4535 85.624 92.2478 85.2945 92.8336 84.7086C93.4195 84.1228 93.749 83.3285 93.75 82.5H98.125C98.6221 82.5005 99.0987 82.6983 99.4502 83.0498C99.8017 83.4013 99.9995 83.8779 100 84.375V90Z" fill="white"/>
<defs>
<filter id="filter0_d_49_366" x="0.5" y="0.5" width="178" height="178" filterUnits="userSpaceOnUse" color-interpolation-filters="sRGB">
<feFlood flood-opacity="0" result="BackgroundImageFix"/>
<feColorMatrix in="SourceAlpha" type="matrix" values="0 0 0 0 0 0 0 0 0 0 0 0 0 0 0 0 0 0 127 0" result="hardAlpha"/>
<feOffset dy="5"/>
<feGaussianBlur stdDeviation="31.25"/>
<feComposite in2="hardAlpha" operator="out"/>
<feColorMatrix type="matrix" values="0 0 0 0 0.145098 0 0 0 0 0.705882 0 0 0 0 0.972549 0 0 0 0.2 0"/>
<feBlend mode="normal" in2="BackgroundImageFix" result="effect1_dropShadow_49_366"/>
<feBlend mode="normal" in="SourceGraphic" in2="effect1_dropShadow_49_366" result="shape"/>
</filter>
</defs>
</svg>
