<svg width="179" height="179" viewBox="0 0 179 179" fill="none" xmlns="http://www.w3.org/2000/svg">
<g filter="url(#filter0_d_49_304)">
<circle cx="89.5" cy="84.5" r="26.5" fill="#25B4F8"/>
</g>
<g clip-path="url(#clip0_49_304)">
<path d="M80.4491 84.8469L80.4489 84.8463L80.4481 84.8444C80.4046 84.7395 79.6109 82.8259 79.6109 81.0392C79.6109 75.5861 84.047 71.15 89.5002 71.15C94.9533 71.15 99.3894 75.5861 99.3894 81.0392C99.3894 82.8388 98.5853 84.7666 98.5519 84.8466L98.5518 84.8469C98.292 85.4635 97.7817 86.4179 97.4116 86.9793L97.4115 86.9794L90.699 97.1498C90.699 97.1498 90.699 97.1498 90.699 97.1498C90.4091 97.5893 89.9734 97.85 89.5002 97.85C89.0269 97.85 88.5913 97.5893 88.3013 97.1492L80.4491 84.8469ZM80.4491 84.8469C80.7089 85.4636 81.2197 86.418 81.5893 86.9793L81.5894 86.9794L88.3013 97.1491L80.4491 84.8469ZM97.3055 84.3225L97.306 84.3215L97.3061 84.3213C97.3066 84.3201 97.3094 84.3133 97.3146 84.3004C97.3203 84.2865 97.3284 84.2663 97.3386 84.2402C97.3591 84.188 97.388 84.1125 97.4225 84.0174C97.4917 83.8272 97.5832 83.5591 97.6745 83.2438C97.8575 82.6117 98.0377 81.7959 98.0377 81.0392C98.0377 76.3317 94.2077 72.5017 89.5002 72.5017C84.7926 72.5017 80.9626 76.3317 80.9626 81.0392C80.9626 82.5548 81.6846 84.296 81.6955 84.3223L81.6955 84.3223L81.6031 84.3606L81.6953 84.322L97.3055 84.3225ZM97.3055 84.3225C97.0782 84.8643 96.6084 85.7416 96.2829 86.2352L89.5704 96.4056L89.5704 96.4057M97.3055 84.3225L89.5704 96.4057M89.5704 96.4057C89.5395 96.4526 89.5174 96.4824 89.5004 96.5004L89.5704 96.4057Z" fill="white" stroke="white" stroke-width="0.2"/>
<path d="M89.4999 75.7555C86.5868 75.7555 84.2174 78.1255 84.2174 81.038C84.2174 83.9505 86.5868 86.3205 89.4999 86.3205C92.413 86.3205 94.7824 83.9505 94.7824 81.038C94.7824 78.1255 92.413 75.7555 89.4999 75.7555ZM89.4999 84.9689C87.333 84.9689 85.5691 83.2055 85.5691 81.038C85.5691 78.8705 87.333 77.1071 89.4999 77.1071C91.6668 77.1071 93.4308 78.8705 93.4308 81.038C93.4308 83.2055 91.6668 84.9689 89.4999 84.9689Z" fill="white" stroke="white" stroke-width="0.2"/>
</g>
<defs>
<filter id="filter0_d_49_304" x="0.5" y="0.5" width="178" height="178" filterUnits="userSpaceOnUse" color-interpolation-filters="sRGB">
<feFlood flood-opacity="0" result="BackgroundImageFix"/>
<feColorMatrix in="SourceAlpha" type="matrix" values="0 0 0 0 0 0 0 0 0 0 0 0 0 0 0 0 0 0 127 0" result="hardAlpha"/>
<feOffset dy="5"/>
<feGaussianBlur stdDeviation="31.25"/>
<feComposite in2="hardAlpha" operator="out"/>
<feColorMatrix type="matrix" values="0 0 0 0 0.145098 0 0 0 0 0.705882 0 0 0 0 0.972549 0 0 0 0.2 0"/>
<feBlend mode="normal" in2="BackgroundImageFix" result="effect1_dropShadow_49_304"/>
<feBlend mode="normal" in="SourceGraphic" in2="effect1_dropShadow_49_304" result="shape"/>
</filter>
<clipPath id="clip0_49_304">
<rect width="26.5" height="26.5" fill="white" transform="translate(76.25 71.25)"/>
</clipPath>
</defs>
</svg>
