<svg width="20" height="20" viewBox="0 0 20 20" fill="none" xmlns="http://www.w3.org/2000/svg">
<path fill-rule="evenodd" clip-rule="evenodd" d="M4.16669 9.16667C4.16669 8.51006 4.29602 7.85988 4.54729 7.25325C4.79857 6.64662 5.16686 6.09543 5.63116 5.63113C6.09545 5.16684 6.64665 4.79854 7.25327 4.54727C7.8599 4.296 8.51008 4.16667 9.16669 4.16667C9.8233 4.16667 10.4735 4.296 11.0801 4.54727C11.6867 4.79854 12.2379 5.16684 12.7022 5.63113C13.1665 6.09543 13.5348 6.64662 13.7861 7.25325C14.0374 7.85988 14.1667 8.51006 14.1667 9.16667C14.1667 10.4927 13.6399 11.7645 12.7022 12.7022C11.7645 13.6399 10.4928 14.1667 9.16669 14.1667C7.84061 14.1667 6.56884 13.6399 5.63116 12.7022C4.69347 11.7645 4.16669 10.4927 4.16669 9.16667ZM9.16669 2.5C8.10574 2.50015 7.06015 2.75352 6.11681 3.23903C5.17347 3.72455 4.35963 4.4282 3.74293 5.2915C3.12622 6.15481 2.72447 7.15283 2.57105 8.20263C2.41763 9.25243 2.51698 10.3237 2.86084 11.3274C3.2047 12.331 3.78313 13.2382 4.54808 13.9733C5.31302 14.7085 6.24238 15.2505 7.25892 15.5543C8.27546 15.858 9.34981 15.9148 10.3927 15.7198C11.4356 15.5249 12.4169 15.0838 13.255 14.4333L16.0775 17.2558C16.2347 17.4076 16.4452 17.4916 16.6637 17.4897C16.8822 17.4878 17.0912 17.4002 17.2457 17.2457C17.4002 17.0912 17.4879 16.8822 17.4898 16.6637C17.4917 16.4452 17.4077 16.2347 17.2559 16.0775L14.4334 13.255C15.1984 12.2695 15.6716 11.0892 15.7992 9.84814C15.9267 8.60709 15.7034 7.35516 15.1548 6.23471C14.6061 5.11425 13.754 4.17024 12.6954 3.51002C11.6369 2.8498 10.4143 2.49986 9.16669 2.5ZM9.16669 12.5C10.0507 12.5 10.8986 12.1488 11.5237 11.5237C12.1488 10.8986 12.5 10.0507 12.5 9.16667C12.5 8.28261 12.1488 7.43477 11.5237 6.80964C10.8986 6.18452 10.0507 5.83333 9.16669 5.83333C8.28264 5.83333 7.43479 6.18452 6.80967 6.80964C6.18455 7.43477 5.83336 8.28261 5.83336 9.16667C5.83336 10.0507 6.18455 10.8986 6.80967 11.5237C7.43479 12.1488 8.28264 12.5 9.16669 12.5Z" fill="#090909"/>
</svg>
