<svg width="179" height="179" viewBox="0 0 179 179" fill="none" xmlns="http://www.w3.org/2000/svg">
<g filter="url(#filter0_d_49_345)">
<circle cx="89.5" cy="84.5" r="26.5" fill="#1376F8"/>
</g>
<g clip-path="url(#clip0_49_345)">
<path d="M81.3996 88.6154C84.0134 91.7398 87.1598 94.1999 90.751 95.9405C92.1182 96.5885 93.9468 97.3572 95.984 97.489C96.1103 97.4945 96.2311 97.5 96.3574 97.5C97.7246 97.5 98.8229 97.0278 99.7179 96.0558C99.7234 96.0504 99.7344 96.0394 99.7399 96.0284C100.058 95.644 100.421 95.2981 100.8 94.9302C101.058 94.6831 101.321 94.425 101.574 94.1614C102.743 92.9424 102.743 91.3939 101.563 90.2133L98.2628 86.9132C97.7027 86.3311 97.0328 86.0236 96.3299 86.0236C95.627 86.0236 94.9516 86.3311 94.3751 86.9077L92.4093 88.8735C92.2281 88.7692 92.0414 88.6758 91.8656 88.588C91.646 88.4781 91.4428 88.3738 91.2616 88.2585C89.4715 87.1218 87.8462 85.6392 86.2922 83.7338C85.507 82.7399 84.9798 81.9053 84.6119 81.0542C85.1281 80.5874 85.6113 80.0987 86.078 79.621C86.2428 79.4508 86.413 79.2806 86.5832 79.1103C87.1763 78.5173 87.4947 77.8309 87.4947 77.1335C87.4947 76.4362 87.1817 75.7498 86.5832 75.1568L84.9469 73.5204C84.7547 73.3282 84.5735 73.1415 84.3868 72.9493C84.0244 72.5759 83.6455 72.1916 83.2721 71.8456C82.7065 71.291 82.0421 71 81.3392 71C80.6419 71 79.9719 71.291 79.3844 71.8511L77.3307 73.9048C76.5839 74.6516 76.1611 75.5576 76.0733 76.6064C75.9689 77.9188 76.2106 79.3135 76.8365 80.9993C77.7975 83.6075 79.2471 86.0291 81.3996 88.6154ZM77.4131 76.7217C77.479 75.9914 77.759 75.3819 78.2862 74.8547L80.3289 72.8121C80.6474 72.5046 80.9988 72.3453 81.3392 72.3453C81.6742 72.3453 82.0146 72.5046 82.3276 72.823C82.6955 73.1635 83.0415 73.5204 83.4149 73.8993C83.6016 74.0915 83.7937 74.2837 83.9859 74.4814L85.6223 76.1177C85.9627 76.4581 86.1384 76.8041 86.1384 77.1445C86.1384 77.485 85.9627 77.8309 85.6223 78.1714C85.4521 78.3416 85.2818 78.5173 85.1116 78.6875C84.6009 79.2037 84.1232 79.6924 83.5961 80.1591C83.5851 80.1701 83.5796 80.1756 83.5686 80.1866C83.1129 80.6424 83.1842 81.0761 83.2941 81.4056C83.2995 81.4221 83.305 81.4331 83.3105 81.4495C83.7333 82.4654 84.3209 83.4318 85.2379 84.585C86.8852 86.6167 88.6204 88.1926 90.5313 89.4061C90.7674 89.5599 91.02 89.6807 91.2561 89.8015C91.4758 89.9113 91.679 90.0156 91.8602 90.131C91.8821 90.1419 91.8986 90.1529 91.9206 90.1639C92.1018 90.2573 92.2775 90.3012 92.4532 90.3012C92.8925 90.3012 93.178 90.0211 93.2714 89.9278L95.325 87.8741C95.6435 87.5556 95.9895 87.3854 96.3299 87.3854C96.7472 87.3854 97.0877 87.6435 97.3018 87.8741L100.613 91.1798C101.272 91.8387 101.266 92.5525 100.596 93.2499C100.366 93.497 100.124 93.7331 99.8662 93.9802C99.4818 94.3536 99.0809 94.738 98.7185 95.1718C98.0871 95.8527 97.3348 96.1712 96.3629 96.1712C96.2695 96.1712 96.1707 96.1657 96.0773 96.1602C94.2762 96.0449 92.6015 95.342 91.344 94.7435C87.9285 93.0907 84.9304 90.746 82.4429 87.7698C80.3948 85.3043 79.0165 83.009 78.105 80.549C77.5394 79.039 77.3252 77.8254 77.4131 76.7217Z" fill="white"/>
</g>
<defs>
<filter id="filter0_d_49_345" x="0.5" y="0.5" width="178" height="178" filterUnits="userSpaceOnUse" color-interpolation-filters="sRGB">
<feFlood flood-opacity="0" result="BackgroundImageFix"/>
<feColorMatrix in="SourceAlpha" type="matrix" values="0 0 0 0 0 0 0 0 0 0 0 0 0 0 0 0 0 0 127 0" result="hardAlpha"/>
<feOffset dy="5"/>
<feGaussianBlur stdDeviation="31.25"/>
<feComposite in2="hardAlpha" operator="out"/>
<feColorMatrix type="matrix" values="0 0 0 0 0.145098 0 0 0 0 0.705882 0 0 0 0 0.972549 0 0 0 0.2 0"/>
<feBlend mode="normal" in2="BackgroundImageFix" result="effect1_dropShadow_49_345"/>
<feBlend mode="normal" in="SourceGraphic" in2="effect1_dropShadow_49_345" result="shape"/>
</filter>
<clipPath id="clip0_49_345">
<rect width="26.5" height="26.5" fill="white" transform="translate(76 71)"/>
</clipPath>
</defs>
</svg>
